<svg width="220" height="26" viewBox="0 0 220 26" fill="none" xmlns="http://www.w3.org/2000/svg">
<g style="mix-blend-mode:plus-darker">
<mask id="path-1-outside-1_1_2" maskUnits="userSpaceOnUse" x="-1" y="-1" width="223" height="28" fill="black">
<rect fill="white" x="-1" y="-1" width="223" height="28"/>
<path d="M0.304 21.472H3.088L9.52 5.216L9.168 4.128H6.224V1.6H15.728L22.896 21.472H25.712V24H14.032V21.472H17.808L16.048 16.64H7.664L5.776 21.472H10.032V24H0.304V21.472ZM15.312 14.464L12.144 5.824H11.888L8.464 14.464H15.312ZM30.65 6.72V21.472H34.746V24H24.89V21.472H28.058V5.152L27.226 4.128H24.378V1.6H32.858L43.738 16.864V4.128H40.218V1.6H49.306V4.128H46.33V24.8H43.706L30.65 6.72ZM62.6445 24.48C60.4045 24.48 58.3885 23.9787 56.5965 22.976C54.8258 21.9733 53.4392 20.5867 52.4365 18.816C51.4338 17.0453 50.9325 15.04 50.9325 12.8C50.9325 10.56 51.4338 8.55467 52.4365 6.784C53.4392 5.01333 54.8258 3.62667 56.5965 2.624C58.3885 1.62133 60.4045 1.12 62.6445 1.12C64.8632 1.12 66.8578 1.62133 68.6285 2.624C70.4205 3.62667 71.8178 5.01333 72.8205 6.784C73.8232 8.55467 74.3245 10.56 74.3245 12.8C74.3245 15.04 73.8232 17.0453 72.8205 18.816C71.8178 20.5867 70.4205 21.9733 68.6285 22.976C66.8578 23.9787 64.8632 24.48 62.6445 24.48ZM62.6445 21.792C63.9672 21.792 65.1298 21.44 66.1325 20.736C67.1352 20.032 67.9032 19.008 68.4365 17.664C68.9698 16.2987 69.2365 14.6773 69.2365 12.8C69.2365 10.9227 68.9698 9.312 68.4365 7.968C67.9032 6.60267 67.1352 5.568 66.1325 4.864C65.1298 4.16 63.9672 3.808 62.6445 3.808C61.3005 3.808 60.1272 4.16 59.1245 4.864C58.1218 5.568 57.3538 6.60267 56.8205 7.968C56.2872 9.312 56.0205 10.9227 56.0205 12.8C56.0205 14.6773 56.2872 16.2987 56.8205 17.664C57.3538 19.008 58.1218 20.032 59.1245 20.736C60.1272 21.44 61.3005 21.792 62.6445 21.792ZM76.0135 14.304H78.5095V15.744C78.5095 16.64 78.7442 17.5573 79.2135 18.496C79.6828 19.4347 80.2908 20.2133 81.0375 20.832C81.8055 21.4507 82.5842 21.76 83.3735 21.76C84.0348 21.76 84.5788 21.568 85.0055 21.184C85.4535 20.8 85.7842 20.2453 85.9975 19.52C86.2108 18.7733 86.3175 17.8133 86.3175 16.64V4.128H81.2935V1.6H94.1255V4.128H91.1175V16.16C91.1175 17.9093 90.7975 19.4133 90.1575 20.672C89.5175 21.9093 88.6535 22.8587 87.5655 23.52C86.4775 24.16 85.2722 24.48 83.9495 24.48C83.2882 24.48 82.6802 24.4053 82.1255 24.256C81.5922 24.1067 81.0268 23.8827 80.4295 23.584C80.1308 23.4773 79.8215 23.3493 79.5015 23.2C79.1815 23.0507 78.8615 22.912 78.5415 22.784V25.344H76.0135V14.304Z"/>
<path d="M102.828 21.472H105.996V4.128H102.828V1.6H114.668C117.27 1.6 119.308 2.112 120.78 3.136C122.273 4.13867 123.02 5.54667 123.02 7.36C123.02 8.61867 122.614 9.70667 121.804 10.624C121.014 11.52 119.884 12.1707 118.412 12.576V12.8C120.161 13.1413 121.505 13.7813 122.444 14.72C123.382 15.6373 123.852 16.8107 123.852 18.24C123.852 20.032 123.116 21.44 121.644 22.464C120.193 23.488 118.177 24 115.596 24H102.828V21.472ZM114.892 21.536C116.129 21.536 117.089 21.2053 117.772 20.544C118.454 19.8827 118.796 18.9547 118.796 17.76C118.796 16.544 118.444 15.6053 117.74 14.944C117.036 14.2613 116.086 13.92 114.892 13.92H110.764V21.536H114.892ZM114.156 11.68C115.414 11.68 116.385 11.3493 117.068 10.688C117.772 10.0053 118.124 9.056 118.124 7.84C118.124 6.64533 117.772 5.71733 117.068 5.056C116.385 4.39467 115.414 4.064 114.156 4.064H110.764V11.68H114.156ZM137.457 24.48C135.217 24.48 133.201 23.9787 131.409 22.976C129.638 21.9733 128.252 20.5867 127.249 18.816C126.246 17.0453 125.745 15.04 125.745 12.8C125.745 10.56 126.246 8.55467 127.249 6.784C128.252 5.01333 129.638 3.62667 131.409 2.624C133.201 1.62133 135.217 1.12 137.457 1.12C139.676 1.12 141.67 1.62133 143.441 2.624C145.233 3.62667 146.63 5.01333 147.633 6.784C148.636 8.55467 149.137 10.56 149.137 12.8C149.137 15.04 148.636 17.0453 147.633 18.816C146.63 20.5867 145.233 21.9733 143.441 22.976C141.67 23.9787 139.676 24.48 137.457 24.48ZM137.457 21.792C138.78 21.792 139.942 21.44 140.945 20.736C141.948 20.032 142.716 19.008 143.249 17.664C143.782 16.2987 144.049 14.6773 144.049 12.8C144.049 10.9227 143.782 9.312 143.249 7.968C142.716 6.60267 141.948 5.568 140.945 4.864C139.942 4.16 138.78 3.808 137.457 3.808C136.113 3.808 134.94 4.16 133.937 4.864C132.934 5.568 132.166 6.60267 131.633 7.968C131.1 9.312 130.833 10.9227 130.833 12.8C130.833 14.6773 131.1 16.2987 131.633 17.664C132.166 19.008 132.934 20.032 133.937 20.736C134.94 21.44 136.113 21.792 137.457 21.792ZM163.082 24.48C160.842 24.48 158.826 23.9787 157.034 22.976C155.263 21.9733 153.877 20.5867 152.874 18.816C151.871 17.0453 151.37 15.04 151.37 12.8C151.37 10.56 151.871 8.55467 152.874 6.784C153.877 5.01333 155.263 3.62667 157.034 2.624C158.826 1.62133 160.842 1.12 163.082 1.12C165.301 1.12 167.295 1.62133 169.066 2.624C170.858 3.62667 172.255 5.01333 173.258 6.784C174.261 8.55467 174.762 10.56 174.762 12.8C174.762 15.04 174.261 17.0453 173.258 18.816C172.255 20.5867 170.858 21.9733 169.066 22.976C167.295 23.9787 165.301 24.48 163.082 24.48ZM163.082 21.792C164.405 21.792 165.567 21.44 166.57 20.736C167.573 20.032 168.341 19.008 168.874 17.664C169.407 16.2987 169.674 14.6773 169.674 12.8C169.674 10.9227 169.407 9.312 168.874 7.968C168.341 6.60267 167.573 5.568 166.57 4.864C165.567 4.16 164.405 3.808 163.082 3.808C161.738 3.808 160.565 4.16 159.562 4.864C158.559 5.568 157.791 6.60267 157.258 7.968C156.725 9.312 156.458 10.9227 156.458 12.8C156.458 14.6773 156.725 16.2987 157.258 17.664C157.791 19.008 158.559 20.032 159.562 20.736C160.565 21.44 161.738 21.792 163.082 21.792ZM176.515 21.472H179.683V4.128H176.515V1.6H187.587V4.128H184.451V11.648H187.107L193.379 4.128H190.115V1.6H199.267V4.128H196.483L190.979 10.816L198.595 21.472H200.931V24H189.603V21.472H192.739L187.171 13.952H184.451V21.472H187.491V24H176.515V21.472ZM201.093 15.072H203.653L203.685 15.968C203.727 16.9707 204.197 17.9413 205.093 18.88C205.989 19.7973 207.13 20.544 208.517 21.12C209.903 21.696 211.311 21.984 212.741 21.984C213.487 21.984 214.138 21.8773 214.693 21.664C215.269 21.4507 215.717 21.152 216.037 20.768C216.378 20.3627 216.549 19.8933 216.549 19.36C216.549 18.784 216.314 18.2827 215.845 17.856C215.397 17.4293 214.799 17.0667 214.053 16.768C213.327 16.4693 212.314 16.1067 211.013 15.68C210.906 15.6587 210.789 15.6267 210.661 15.584C210.554 15.5413 210.447 15.5093 210.341 15.488C210.319 15.4667 210.298 15.456 210.277 15.456C210.255 15.456 210.234 15.4453 210.213 15.424C208.506 14.848 207.055 14.272 205.861 13.696C204.666 13.12 203.631 12.32 202.757 11.296C201.903 10.2507 201.477 8.94933 201.477 7.392C201.477 6.09067 201.807 4.97067 202.469 4.032C203.13 3.09333 204.047 2.37867 205.221 1.888C206.394 1.376 207.738 1.12 209.253 1.12C210.127 1.12 210.959 1.20533 211.749 1.376C212.559 1.54667 213.37 1.77066 214.181 2.048C214.607 2.21867 215.013 2.4 215.397 2.592C215.781 2.784 216.133 2.99733 216.453 3.232V0.383999H218.981V9.824H216.485V9.024C216.442 8.256 215.994 7.46667 215.141 6.656C214.287 5.824 213.21 5.14133 211.909 4.608C210.629 4.05333 209.37 3.776 208.133 3.776C207.109 3.776 206.287 4.01067 205.669 4.48C205.071 4.928 204.773 5.536 204.773 6.304C204.773 6.944 205.007 7.49867 205.477 7.968C205.967 8.416 206.586 8.81067 207.333 9.152C208.079 9.472 209.114 9.84533 210.437 10.272C210.543 10.2933 210.639 10.3253 210.725 10.368C210.831 10.3893 210.949 10.4107 211.077 10.432L211.557 10.624C213.327 11.2 214.778 11.7653 215.909 12.32C217.061 12.8747 218.031 13.6213 218.821 14.56C219.61 15.4987 220.005 16.6613 220.005 18.048C220.005 19.4347 219.663 20.608 218.981 21.568C218.319 22.528 217.391 23.2533 216.197 23.744C215.002 24.2347 213.615 24.48 212.037 24.48C210.927 24.48 209.893 24.384 208.933 24.192C207.973 24 207.045 23.744 206.149 23.424C205.679 23.232 205.231 23.0293 204.805 22.816C204.378 22.6027 203.983 22.368 203.621 22.112V24.96H201.093V15.072Z"/>
</mask>
<path d="M0.304 21.472H3.088L9.52 5.216L9.168 4.128H6.224V1.6H15.728L22.896 21.472H25.712V24H14.032V21.472H17.808L16.048 16.64H7.664L5.776 21.472H10.032V24H0.304V21.472ZM15.312 14.464L12.144 5.824H11.888L8.464 14.464H15.312ZM30.65 6.72V21.472H34.746V24H24.89V21.472H28.058V5.152L27.226 4.128H24.378V1.6H32.858L43.738 16.864V4.128H40.218V1.6H49.306V4.128H46.33V24.8H43.706L30.65 6.72ZM62.6445 24.48C60.4045 24.48 58.3885 23.9787 56.5965 22.976C54.8258 21.9733 53.4392 20.5867 52.4365 18.816C51.4338 17.0453 50.9325 15.04 50.9325 12.8C50.9325 10.56 51.4338 8.55467 52.4365 6.784C53.4392 5.01333 54.8258 3.62667 56.5965 2.624C58.3885 1.62133 60.4045 1.12 62.6445 1.12C64.8632 1.12 66.8578 1.62133 68.6285 2.624C70.4205 3.62667 71.8178 5.01333 72.8205 6.784C73.8232 8.55467 74.3245 10.56 74.3245 12.8C74.3245 15.04 73.8232 17.0453 72.8205 18.816C71.8178 20.5867 70.4205 21.9733 68.6285 22.976C66.8578 23.9787 64.8632 24.48 62.6445 24.48ZM62.6445 21.792C63.9672 21.792 65.1298 21.44 66.1325 20.736C67.1352 20.032 67.9032 19.008 68.4365 17.664C68.9698 16.2987 69.2365 14.6773 69.2365 12.8C69.2365 10.9227 68.9698 9.312 68.4365 7.968C67.9032 6.60267 67.1352 5.568 66.1325 4.864C65.1298 4.16 63.9672 3.808 62.6445 3.808C61.3005 3.808 60.1272 4.16 59.1245 4.864C58.1218 5.568 57.3538 6.60267 56.8205 7.968C56.2872 9.312 56.0205 10.9227 56.0205 12.8C56.0205 14.6773 56.2872 16.2987 56.8205 17.664C57.3538 19.008 58.1218 20.032 59.1245 20.736C60.1272 21.44 61.3005 21.792 62.6445 21.792ZM76.0135 14.304H78.5095V15.744C78.5095 16.64 78.7442 17.5573 79.2135 18.496C79.6828 19.4347 80.2908 20.2133 81.0375 20.832C81.8055 21.4507 82.5842 21.76 83.3735 21.76C84.0348 21.76 84.5788 21.568 85.0055 21.184C85.4535 20.8 85.7842 20.2453 85.9975 19.52C86.2108 18.7733 86.3175 17.8133 86.3175 16.64V4.128H81.2935V1.6H94.1255V4.128H91.1175V16.16C91.1175 17.9093 90.7975 19.4133 90.1575 20.672C89.5175 21.9093 88.6535 22.8587 87.5655 23.52C86.4775 24.16 85.2722 24.48 83.9495 24.48C83.2882 24.48 82.6802 24.4053 82.1255 24.256C81.5922 24.1067 81.0268 23.8827 80.4295 23.584C80.1308 23.4773 79.8215 23.3493 79.5015 23.2C79.1815 23.0507 78.8615 22.912 78.5415 22.784V25.344H76.0135V14.304Z" fill="#6C63FF"/>
<path d="M0.304 21.472V20.472H-0.696V21.472H0.304ZM3.088 21.472V22.472H3.76776L4.01786 21.8399L3.088 21.472ZM9.52 5.216L10.4499 5.58392L10.582 5.24992L10.4714 4.90818L9.52 5.216ZM9.168 4.128L10.1194 3.82018L9.8955 3.128H9.168V4.128ZM6.224 4.128H5.224V5.128H6.224V4.128ZM6.224 1.6V0.599998H5.224V1.6H6.224ZM15.728 1.6L16.6687 1.26069L16.4304 0.599998H15.728V1.6ZM22.896 21.472L21.9553 21.8113L22.1936 22.472H22.896V21.472ZM25.712 21.472H26.712V20.472H25.712V21.472ZM25.712 24V25H26.712V24H25.712ZM14.032 24H13.032V25H14.032V24ZM14.032 21.472V20.472H13.032V21.472H14.032ZM17.808 21.472V22.472H19.2365L18.7476 21.1298L17.808 21.472ZM16.048 16.64L16.9876 16.2978L16.748 15.64H16.048V16.64ZM7.664 16.64V15.64H6.9811L6.73258 16.2761L7.664 16.64ZM5.776 21.472L4.84458 21.1081L4.31165 22.472H5.776V21.472ZM10.032 21.472H11.032V20.472H10.032V21.472ZM10.032 24V25H11.032V24H10.032ZM0.304 24H-0.696V25H0.304V24ZM15.312 14.464V15.464H16.7438L16.2509 14.1197L15.312 14.464ZM12.144 5.824L13.0829 5.47974L12.8424 4.824H12.144V5.824ZM11.888 5.824V4.824H11.2086L10.9583 5.45558L11.888 5.824ZM8.464 14.464L7.53434 14.0956L6.99204 15.464H8.464V14.464ZM0.304 22.472H3.088V20.472H0.304V22.472ZM4.01786 21.8399L10.4499 5.58392L8.59014 4.84808L2.15814 21.1041L4.01786 21.8399ZM10.4714 4.90818L10.1194 3.82018L8.21656 4.43582L8.56856 5.52382L10.4714 4.90818ZM9.168 3.128H6.224V5.128H9.168V3.128ZM7.224 4.128V1.6H5.224V4.128H7.224ZM6.224 2.6H15.728V0.599998H6.224V2.6ZM14.7873 1.93931L21.9553 21.8113L23.8367 21.1327L16.6687 1.26069L14.7873 1.93931ZM22.896 22.472H25.712V20.472H22.896V22.472ZM24.712 21.472V24H26.712V21.472H24.712ZM25.712 23H14.032V25H25.712V23ZM15.032 24V21.472H13.032V24H15.032ZM14.032 22.472H17.808V20.472H14.032V22.472ZM18.7476 21.1298L16.9876 16.2978L15.1084 16.9822L16.8684 21.8142L18.7476 21.1298ZM16.048 15.64H7.664V17.64H16.048V15.64ZM6.73258 16.2761L4.84458 21.1081L6.70742 21.8359L8.59542 17.0039L6.73258 16.2761ZM5.776 22.472H10.032V20.472H5.776V22.472ZM9.032 21.472V24H11.032V21.472H9.032ZM10.032 23H0.304V25H10.032V23ZM1.304 24V21.472H-0.696V24H1.304ZM16.2509 14.1197L13.0829 5.47974L11.2051 6.16825L14.3731 14.8083L16.2509 14.1197ZM12.144 4.824H11.888V6.824H12.144V4.824ZM10.9583 5.45558L7.53434 14.0956L9.39366 14.8324L12.8177 6.19242L10.9583 5.45558ZM8.464 15.464H15.312V13.464H8.464V15.464ZM30.65 6.72L31.4607 6.13456L29.65 3.62707V6.72H30.65ZM30.65 21.472H29.65V22.472H30.65V21.472ZM34.746 21.472H35.746V20.472H34.746V21.472ZM34.746 24V25H35.746V24H34.746ZM24.89 24H23.89V25H24.89V24ZM24.89 21.472V20.472H23.89V21.472H24.89ZM28.058 21.472V22.472H29.058V21.472H28.058ZM28.058 5.152H29.058V4.79696L28.8341 4.52141L28.058 5.152ZM27.226 4.128L28.0021 3.49741L27.702 3.128H27.226V4.128ZM24.378 4.128H23.378V5.128H24.378V4.128ZM24.378 1.6V0.599998H23.378V1.6H24.378ZM32.858 1.6L33.6723 1.01957L33.3732 0.599998H32.858V1.6ZM43.738 16.864L42.9237 17.4444L44.738 19.9898V16.864H43.738ZM43.738 4.128H44.738V3.128H43.738V4.128ZM40.218 4.128H39.218V5.128H40.218V4.128ZM40.218 1.6V0.599998H39.218V1.6H40.218ZM49.306 1.6H50.306V0.599998H49.306V1.6ZM49.306 4.128V5.128H50.306V4.128H49.306ZM46.33 4.128V3.128H45.33V4.128H46.33ZM46.33 24.8V25.8H47.33V24.8H46.33ZM43.706 24.8L42.8953 25.3854L43.1946 25.8H43.706V24.8ZM29.65 6.72V21.472H31.65V6.72H29.65ZM30.65 22.472H34.746V20.472H30.65V22.472ZM33.746 21.472V24H35.746V21.472H33.746ZM34.746 23H24.89V25H34.746V23ZM25.89 24V21.472H23.89V24H25.89ZM24.89 22.472H28.058V20.472H24.89V22.472ZM29.058 21.472V5.152H27.058V21.472H29.058ZM28.8341 4.52141L28.0021 3.49741L26.4499 4.75859L27.2819 5.78259L28.8341 4.52141ZM27.226 3.128H24.378V5.128H27.226V3.128ZM25.378 4.128V1.6H23.378V4.128H25.378ZM24.378 2.6H32.858V0.599998H24.378V2.6ZM32.0437 2.18043L42.9237 17.4444L44.5523 16.2836L33.6723 1.01957L32.0437 2.18043ZM44.738 16.864V4.128H42.738V16.864H44.738ZM43.738 3.128H40.218V5.128H43.738V3.128ZM41.218 4.128V1.6H39.218V4.128H41.218ZM40.218 2.6H49.306V0.599998H40.218V2.6ZM48.306 1.6V4.128H50.306V1.6H48.306ZM49.306 3.128H46.33V5.128H49.306V3.128ZM45.33 4.128V24.8H47.33V4.128H45.33ZM46.33 23.8H43.706V25.8H46.33V23.8ZM44.5167 24.2146L31.4607 6.13456L29.8393 7.30544L42.8953 25.3854L44.5167 24.2146ZM56.5965 22.976L56.1037 23.8462L56.1082 23.8487L56.5965 22.976ZM52.4365 18.816L51.5663 19.3087L51.5663 19.3087L52.4365 18.816ZM52.4365 6.784L51.5663 6.29125L51.5663 6.29125L52.4365 6.784ZM56.5965 2.624L56.1082 1.7513L56.1038 1.75383L56.5965 2.624ZM68.6285 2.624L68.1357 3.49418L68.1402 3.49668L68.6285 2.624ZM72.8205 6.784L73.6907 6.29125L73.6907 6.29125L72.8205 6.784ZM72.8205 18.816L73.6907 19.3087L73.6907 19.3087L72.8205 18.816ZM68.6285 22.976L68.1402 22.1033L68.1358 22.1058L68.6285 22.976ZM66.1325 20.736L66.7071 21.5544L66.7071 21.5544L66.1325 20.736ZM68.4365 17.664L69.366 18.0329L69.368 18.0279L68.4365 17.664ZM68.4365 7.968L67.505 8.33185L67.507 8.33684L68.4365 7.968ZM66.1325 4.864L66.7071 4.04559L66.7071 4.04559L66.1325 4.864ZM59.1245 4.864L58.5499 4.04559L58.5499 4.04559L59.1245 4.864ZM56.8205 7.968L57.75 8.33685L57.752 8.33185L56.8205 7.968ZM56.8205 17.664L55.889 18.0279L55.891 18.0328L56.8205 17.664ZM59.1245 20.736L58.5499 21.5544L58.5499 21.5544L59.1245 20.736ZM62.6445 23.48C60.5595 23.48 58.7143 23.015 57.0848 22.1033L56.1082 23.8487C58.0627 24.9423 60.2495 25.48 62.6445 25.48V23.48ZM57.0892 22.1058C55.4763 21.1924 54.2201 19.9362 53.3067 18.3233L51.5663 19.3087C52.6583 21.2371 54.1754 22.7542 56.1038 23.8462L57.0892 22.1058ZM53.3067 18.3233C52.3975 16.7177 51.9325 14.8851 51.9325 12.8H49.9325C49.9325 15.1949 50.4702 17.373 51.5663 19.3087L53.3067 18.3233ZM51.9325 12.8C51.9325 10.7149 52.3975 8.88233 53.3067 7.27675L51.5663 6.29125C50.4702 8.22701 49.9325 10.4051 49.9325 12.8H51.9325ZM53.3067 7.27675C54.2201 5.66376 55.4763 4.40755 57.0892 3.49417L56.1038 1.75383C54.1754 2.84578 52.6583 4.3629 51.5663 6.29125L53.3067 7.27675ZM57.0848 3.49668C58.7143 2.58495 60.5595 2.12 62.6445 2.12V0.119999C60.2495 0.119999 58.0627 0.65771 56.1082 1.75132L57.0848 3.49668ZM62.6445 2.12C64.7065 2.12 66.5287 2.58417 68.1358 3.49417L69.1212 1.75383C67.1869 0.658492 65.0198 0.119999 62.6445 0.119999V2.12ZM68.1402 3.49668C69.7741 4.41088 71.0387 5.6668 71.9503 7.27675L73.6907 6.29125C72.597 4.35986 71.0669 2.84245 69.1168 1.75132L68.1402 3.49668ZM71.9503 7.27675C72.8595 8.88233 73.3245 10.7149 73.3245 12.8H75.3245C75.3245 10.4051 74.7868 8.22701 73.6907 6.29125L71.9503 7.27675ZM73.3245 12.8C73.3245 14.8851 72.8595 16.7177 71.9503 18.3233L73.6907 19.3087C74.7868 17.373 75.3245 15.1949 75.3245 12.8H73.3245ZM71.9503 18.3233C71.0387 19.9332 69.7741 21.1891 68.1402 22.1033L69.1168 23.8487C71.0669 22.7575 72.597 21.2401 73.6907 19.3087L71.9503 18.3233ZM68.1358 22.1058C66.5287 23.0158 64.7065 23.48 62.6445 23.48V25.48C65.0198 25.48 67.1869 24.9415 69.1212 23.8462L68.1358 22.1058ZM62.6445 22.792C64.1556 22.792 65.5226 22.3861 66.7071 21.5544L65.5579 19.9176C64.7371 20.4939 63.7787 20.792 62.6445 20.792V22.792ZM66.7071 21.5544C67.8964 20.7194 68.7739 19.5248 69.366 18.0328L67.507 17.2952C67.0324 18.4912 66.374 19.3446 65.5579 19.9176L66.7071 21.5544ZM69.368 18.0279C69.9573 16.5191 70.2365 14.7684 70.2365 12.8H68.2365C68.2365 14.5862 67.9823 16.0783 67.505 17.3001L69.368 18.0279ZM70.2365 12.8C70.2365 10.8322 69.9575 9.08981 69.366 7.59915L67.507 8.33684C67.9821 9.53418 68.2365 11.0131 68.2365 12.8H70.2365ZM69.368 7.60415C68.7773 6.09205 67.9003 4.88332 66.7071 4.04559L65.5579 5.68241C66.3701 6.25268 67.029 7.11328 67.505 8.33185L69.368 7.60415ZM66.7071 4.04559C65.5226 3.21387 64.1556 2.808 62.6445 2.808V4.808C63.7787 4.808 64.7371 5.10612 65.5579 5.68241L66.7071 4.04559ZM62.6445 2.808C61.1158 2.808 59.7372 3.21193 58.5499 4.04559L59.6991 5.68241C60.5171 5.10806 61.4852 4.808 62.6445 4.808V2.808ZM58.5499 4.04559C57.3567 4.88332 56.4797 6.09205 55.889 7.60415L57.752 8.33185C58.228 7.11328 58.8869 6.25268 59.6991 5.68241L58.5499 4.04559ZM55.891 7.59915C55.2995 9.08981 55.0205 10.8322 55.0205 12.8H57.0205C57.0205 11.0131 57.2749 9.53418 57.75 8.33684L55.891 7.59915ZM55.0205 12.8C55.0205 14.7684 55.2997 16.5191 55.889 18.0279L57.752 17.3001C57.2747 16.0783 57.0205 14.5862 57.0205 12.8H55.0205ZM55.891 18.0328C56.4831 19.5248 57.3606 20.7194 58.5499 21.5544L59.6991 19.9176C58.883 19.3446 58.2246 18.4912 57.75 17.2952L55.891 18.0328ZM58.5499 21.5544C59.7372 22.3881 61.1158 22.792 62.6445 22.792V20.792C61.4852 20.792 60.5171 20.4919 59.6991 19.9176L58.5499 21.5544ZM76.0135 14.304V13.304H75.0135V14.304H76.0135ZM78.5095 14.304H79.5095V13.304H78.5095V14.304ZM79.2135 18.496L80.1079 18.0488L80.1079 18.0488L79.2135 18.496ZM81.0375 20.832L80.3994 21.6021L80.4102 21.6108L81.0375 20.832ZM85.0055 21.184L84.3547 20.4247L84.3455 20.4326L84.3365 20.4407L85.0055 21.184ZM85.9975 19.52L86.9569 19.8022L86.959 19.7947L85.9975 19.52ZM86.3175 4.128H87.3175V3.128H86.3175V4.128ZM81.2935 4.128H80.2935V5.128H81.2935V4.128ZM81.2935 1.6V0.599998H80.2935V1.6H81.2935ZM94.1255 1.6H95.1255V0.599998H94.1255V1.6ZM94.1255 4.128V5.128H95.1255V4.128H94.1255ZM91.1175 4.128V3.128H90.1175V4.128H91.1175ZM90.1575 20.672L91.0457 21.1314L91.0489 21.1252L90.1575 20.672ZM87.5655 23.52L88.0725 24.3819L88.0787 24.3783L88.0849 24.3745L87.5655 23.52ZM82.1255 24.256L81.8559 25.219L81.8655 25.2216L82.1255 24.256ZM80.4295 23.584L80.8767 22.6896L80.8227 22.6626L80.7658 22.6423L80.4295 23.584ZM79.5015 23.2L79.0786 24.1062L79.0786 24.1062L79.5015 23.2ZM78.5415 22.784L78.9129 21.8555L77.5415 21.307V22.784H78.5415ZM78.5415 25.344V26.344H79.5415V25.344H78.5415ZM76.0135 25.344H75.0135V26.344H76.0135V25.344ZM76.0135 15.304H78.5095V13.304H76.0135V15.304ZM77.5095 14.304V15.744H79.5095V14.304H77.5095ZM77.5095 15.744C77.5095 16.8197 77.7922 17.8894 78.3191 18.9432L80.1079 18.0488C79.6962 17.2253 79.5095 16.4603 79.5095 15.744H77.5095ZM78.3191 18.9432C78.8454 19.9958 79.5373 20.8876 80.3995 21.602L81.6755 20.062C81.0444 19.539 80.5203 18.8736 80.1079 18.0488L78.3191 18.9432ZM80.4102 21.6108C81.3105 22.336 82.3038 22.76 83.3735 22.76V20.76C82.8646 20.76 82.3005 20.5653 81.6648 20.0532L80.4102 21.6108ZM83.3735 22.76C84.2418 22.76 85.0364 22.5015 85.6745 21.9273L84.3365 20.4407C84.1213 20.6345 83.8279 20.76 83.3735 20.76V22.76ZM85.6563 21.9433C86.2873 21.4024 86.7042 20.6613 86.9569 19.8022L85.0381 19.2378C84.8642 19.8294 84.6197 20.1976 84.3547 20.4247L85.6563 21.9433ZM86.959 19.7947C87.2073 18.9256 87.3175 17.864 87.3175 16.64H85.3175C85.3175 17.7627 85.2143 18.6211 85.036 19.2453L86.959 19.7947ZM87.3175 16.64V4.128H85.3175V16.64H87.3175ZM86.3175 3.128H81.2935V5.128H86.3175V3.128ZM82.2935 4.128V1.6H80.2935V4.128H82.2935ZM81.2935 2.6H94.1255V0.599998H81.2935V2.6ZM93.1255 1.6V4.128H95.1255V1.6H93.1255ZM94.1255 3.128H91.1175V5.128H94.1255V3.128ZM90.1175 4.128V16.16H92.1175V4.128H90.1175ZM90.1175 16.16C90.1175 17.7887 89.8197 19.1301 89.2661 20.2188L91.0489 21.1252C91.7753 19.6966 92.1175 18.0299 92.1175 16.16H90.1175ZM89.2693 20.2126C88.7054 21.3027 87.9626 22.1084 87.0461 22.6655L88.0849 24.3745C89.3444 23.609 90.3296 22.5159 91.0457 21.1314L89.2693 20.2126ZM87.0585 22.6581C86.1316 23.2033 85.1028 23.48 83.9495 23.48V25.48C85.4416 25.48 86.8234 25.1167 88.0725 24.3819L87.0585 22.6581ZM83.9495 23.48C83.363 23.48 82.8437 23.4138 82.3855 23.2904L81.8655 25.2216C82.5166 25.3969 83.2133 25.48 83.9495 25.48V23.48ZM82.3951 23.293C81.934 23.1639 81.4284 22.9654 80.8767 22.6896L79.9823 24.4784C80.6253 24.7999 81.2503 25.0494 81.8559 25.219L82.3951 23.293ZM80.7658 22.6423C80.4996 22.5472 80.2192 22.4314 79.9244 22.2938L79.0786 24.1062C79.4238 24.2673 79.762 24.4075 80.0932 24.5257L80.7658 22.6423ZM79.9244 22.2938C79.5878 22.1368 79.2507 21.9906 78.9129 21.8555L78.1701 23.7125C78.4723 23.8334 78.7752 23.9646 79.0786 24.1062L79.9244 22.2938ZM77.5415 22.784V25.344H79.5415V22.784H77.5415ZM78.5415 24.344H76.0135V26.344H78.5415V24.344ZM77.0135 25.344V14.304H75.0135V25.344H77.0135ZM102.828 21.472V20.472H101.828V21.472H102.828ZM105.996 21.472V22.472H106.996V21.472H105.996ZM105.996 4.128H106.996V3.128H105.996V4.128ZM102.828 4.128H101.828V5.128H102.828V4.128ZM102.828 1.6V0.599998H101.828V1.6H102.828ZM120.78 3.136L120.208 3.9569L120.215 3.96162L120.222 3.96622L120.78 3.136ZM121.804 10.624L121.054 9.9618L121.053 9.96297L121.804 10.624ZM118.412 12.576L118.146 11.6119L117.412 11.8141V12.576H118.412ZM118.412 12.8H117.412V13.6237L118.22 13.7815L118.412 12.8ZM122.444 14.72L121.736 15.4272L121.745 15.4352L122.444 14.72ZM121.644 22.464L121.072 21.6431L121.067 21.647L121.644 22.464ZM102.828 24H101.828V25H102.828V24ZM117.772 20.544L117.076 19.8258L117.076 19.8258L117.772 20.544ZM117.74 14.944L117.043 15.6619L117.049 15.6674L117.055 15.6728L117.74 14.944ZM110.764 13.92V12.92H109.764V13.92H110.764ZM110.764 21.536H109.764V22.536H110.764V21.536ZM117.068 10.688L117.763 11.4062L117.764 11.4059L117.068 10.688ZM117.068 5.056L116.372 5.77424L116.377 5.77959L116.383 5.78485L117.068 5.056ZM110.764 4.064V3.064H109.764V4.064H110.764ZM110.764 11.68H109.764V12.68H110.764V11.68ZM102.828 22.472H105.996V20.472H102.828V22.472ZM106.996 21.472V4.128H104.996V21.472H106.996ZM105.996 3.128H102.828V5.128H105.996V3.128ZM103.828 4.128V1.6H101.828V4.128H103.828ZM102.828 2.6H114.668V0.599998H102.828V2.6ZM114.668 2.6C117.154 2.6 118.964 3.09128 120.208 3.9569L121.351 2.31509C119.651 1.13272 117.386 0.599998 114.668 0.599998V2.6ZM120.222 3.96622C121.436 4.78134 122.02 5.87659 122.02 7.36H124.02C124.02 5.21674 123.11 3.49599 121.337 2.30578L120.222 3.96622ZM122.02 7.36C122.02 8.38229 121.698 9.23282 121.054 9.9618L122.553 11.2862C123.53 10.1805 124.02 8.85504 124.02 7.36H122.02ZM121.053 9.96297C120.424 10.6772 119.482 11.2439 118.146 11.6119L118.677 13.5401C120.285 13.0974 121.604 12.3628 122.554 11.285L121.053 9.96297ZM117.412 12.576V12.8H119.412V12.576H117.412ZM118.22 13.7815C119.839 14.0975 120.979 14.6699 121.736 15.4271L123.151 14.0129C122.03 12.8927 120.482 12.1852 118.603 11.8185L118.22 13.7815ZM121.745 15.4352C122.473 16.1466 122.852 17.0534 122.852 18.24H124.852C124.852 16.568 124.292 15.1281 123.142 14.0048L121.745 15.4352ZM122.852 18.24C122.852 19.7044 122.276 20.8059 121.072 21.6431L122.215 23.2849C123.955 22.0741 124.852 20.3596 124.852 18.24H122.852ZM121.067 21.647C119.846 22.509 118.06 23 115.596 23V25C118.294 25 120.54 24.467 122.22 23.281L121.067 21.647ZM115.596 23H102.828V25H115.596V23ZM103.828 24V21.472H101.828V24H103.828ZM114.892 22.536C116.307 22.536 117.547 22.1539 118.467 21.2622L117.076 19.8258C116.631 20.2568 115.95 20.536 114.892 20.536V22.536ZM118.467 21.2622C119.392 20.3668 119.796 19.1517 119.796 17.76H117.796C117.796 18.7576 117.517 19.3986 117.076 19.8258L118.467 21.2622ZM119.796 17.76C119.796 16.344 119.379 15.1119 118.424 14.2152L117.055 15.6728C117.508 16.0987 117.796 16.744 117.796 17.76H119.796ZM118.436 14.2261C117.506 13.3246 116.286 12.92 114.892 12.92V14.92C115.886 14.92 116.565 15.1981 117.043 15.6619L118.436 14.2261ZM114.892 12.92H110.764V14.92H114.892V12.92ZM109.764 13.92V21.536H111.764V13.92H109.764ZM110.764 22.536H114.892V20.536H110.764V22.536ZM114.156 12.68C115.587 12.68 116.84 12.3008 117.763 11.4062L116.372 9.96976C115.93 10.3979 115.241 10.68 114.156 10.68V12.68ZM117.764 11.4059C118.706 10.4917 119.124 9.25745 119.124 7.84H117.124C117.124 8.85455 116.837 9.51899 116.371 9.9701L117.764 11.4059ZM119.124 7.84C119.124 6.43927 118.703 5.2206 117.752 4.32715L116.383 5.78485C116.84 6.21406 117.124 6.8514 117.124 7.84H119.124ZM117.763 4.33776C116.84 3.44319 115.587 3.064 114.156 3.064V5.064C115.241 5.064 115.93 5.34614 116.372 5.77424L117.763 4.33776ZM114.156 3.064H110.764V5.064H114.156V3.064ZM109.764 4.064V11.68H111.764V4.064H109.764ZM110.764 12.68H114.156V10.68H110.764V12.68ZM131.409 22.976L130.916 23.8462L130.921 23.8487L131.409 22.976ZM127.249 18.816L126.379 19.3087L126.379 19.3087L127.249 18.816ZM127.249 6.784L126.379 6.29125L126.379 6.29125L127.249 6.784ZM131.409 2.624L130.921 1.7513L130.916 1.75383L131.409 2.624ZM143.441 2.624L142.948 3.49418L142.953 3.49668L143.441 2.624ZM147.633 6.784L148.503 6.29125L148.503 6.29125L147.633 6.784ZM147.633 18.816L148.503 19.3087L148.503 19.3087L147.633 18.816ZM143.441 22.976L142.953 22.1033L142.948 22.1058L143.441 22.976ZM140.945 20.736L141.52 21.5544L141.52 21.5544L140.945 20.736ZM143.249 17.664L144.179 18.0329L144.18 18.0279L143.249 17.664ZM143.249 7.968L142.318 8.33185L142.32 8.33684L143.249 7.968ZM140.945 4.864L141.52 4.04559L141.52 4.04559L140.945 4.864ZM133.937 4.864L133.362 4.04559L133.362 4.04559L133.937 4.864ZM131.633 7.968L132.563 8.33685L132.564 8.33185L131.633 7.968ZM131.633 17.664L130.702 18.0279L130.704 18.0328L131.633 17.664ZM133.937 20.736L133.362 21.5544L133.362 21.5544L133.937 20.736ZM137.457 23.48C135.372 23.48 133.527 23.015 131.897 22.1033L130.921 23.8487C132.875 24.9423 135.062 25.48 137.457 25.48V23.48ZM131.902 22.1058C130.289 21.1924 129.033 19.9362 128.119 18.3233L126.379 19.3087C127.471 21.2371 128.988 22.7542 130.916 23.8462L131.902 22.1058ZM128.119 18.3233C127.21 16.7177 126.745 14.8851 126.745 12.8H124.745C124.745 15.1949 125.283 17.373 126.379 19.3087L128.119 18.3233ZM126.745 12.8C126.745 10.7149 127.21 8.88233 128.119 7.27675L126.379 6.29125C125.283 8.22701 124.745 10.4051 124.745 12.8H126.745ZM128.119 7.27675C129.033 5.66376 130.289 4.40755 131.902 3.49417L130.916 1.75383C128.988 2.84578 127.471 4.3629 126.379 6.29125L128.119 7.27675ZM131.897 3.49668C133.527 2.58495 135.372 2.12 137.457 2.12V0.119999C135.062 0.119999 132.875 0.65771 130.921 1.75132L131.897 3.49668ZM137.457 2.12C139.519 2.12 141.341 2.58417 142.948 3.49417L143.934 1.75383C141.999 0.658492 139.832 0.119999 137.457 0.119999V2.12ZM142.953 3.49668C144.587 4.41088 145.851 5.6668 146.763 7.27675L148.503 6.29125C147.409 4.35986 145.879 2.84245 143.929 1.75132L142.953 3.49668ZM146.763 7.27675C147.672 8.88233 148.137 10.7149 148.137 12.8H150.137C150.137 10.4051 149.599 8.22701 148.503 6.29125L146.763 7.27675ZM148.137 12.8C148.137 14.8851 147.672 16.7177 146.763 18.3233L148.503 19.3087C149.599 17.373 150.137 15.1949 150.137 12.8H148.137ZM146.763 18.3233C145.851 19.9332 144.587 21.1891 142.953 22.1033L143.929 23.8487C145.879 22.7575 147.409 21.2401 148.503 19.3087L146.763 18.3233ZM142.948 22.1058C141.341 23.0158 139.519 23.48 137.457 23.48V25.48C139.832 25.48 141.999 24.9415 143.934 23.8462L142.948 22.1058ZM137.457 22.792C138.968 22.792 140.335 22.3861 141.52 21.5544L140.37 19.9176C139.55 20.4939 138.591 20.792 137.457 20.792V22.792ZM141.52 21.5544C142.709 20.7194 143.586 19.5248 144.178 18.0328L142.32 17.2952C141.845 18.4912 141.186 19.3446 140.37 19.9176L141.52 21.5544ZM144.18 18.0279C144.77 16.5191 145.049 14.7684 145.049 12.8H143.049C143.049 14.5862 142.795 16.0783 142.318 17.3001L144.18 18.0279ZM145.049 12.8C145.049 10.8322 144.77 9.08981 144.178 7.59915L142.32 8.33684C142.795 9.53418 143.049 11.0131 143.049 12.8H145.049ZM144.18 7.60415C143.59 6.09205 142.713 4.88332 141.52 4.04559L140.37 5.68241C141.183 6.25268 141.842 7.11328 142.318 8.33185L144.18 7.60415ZM141.52 4.04559C140.335 3.21387 138.968 2.808 137.457 2.808V4.808C138.591 4.808 139.55 5.10612 140.37 5.68241L141.52 4.04559ZM137.457 2.808C135.928 2.808 134.55 3.21193 133.362 4.04559L134.512 5.68241C135.33 5.10806 136.298 4.808 137.457 4.808V2.808ZM133.362 4.04559C132.169 4.88332 131.292 6.09205 130.702 7.60415L132.564 8.33185C133.04 7.11328 133.699 6.25268 134.512 5.68241L133.362 4.04559ZM130.704 7.59915C130.112 9.08981 129.833 10.8322 129.833 12.8H131.833C131.833 11.0131 132.087 9.53418 132.562 8.33684L130.704 7.59915ZM129.833 12.8C129.833 14.7684 130.112 16.5191 130.702 18.0279L132.564 17.3001C132.087 16.0783 131.833 14.5862 131.833 12.8H129.833ZM130.704 18.0328C131.296 19.5248 132.173 20.7194 133.362 21.5544L134.512 19.9176C133.696 19.3446 133.037 18.4912 132.562 17.2952L130.704 18.0328ZM133.362 21.5544C134.55 22.3881 135.928 22.792 137.457 22.792V20.792C136.298 20.792 135.33 20.4919 134.512 19.9176L133.362 21.5544ZM157.034 22.976L156.541 23.8462L156.546 23.8487L157.034 22.976ZM152.874 18.816L152.004 19.3087L152.004 19.3087L152.874 18.816ZM152.874 6.784L152.004 6.29125L152.004 6.29125L152.874 6.784ZM157.034 2.624L156.546 1.7513L156.541 1.75383L157.034 2.624ZM169.066 2.624L168.573 3.49418L168.578 3.49668L169.066 2.624ZM173.258 6.784L174.128 6.29125L174.128 6.29125L173.258 6.784ZM173.258 18.816L174.128 19.3087L174.128 19.3087L173.258 18.816ZM169.066 22.976L168.578 22.1033L168.573 22.1058L169.066 22.976ZM166.57 20.736L167.145 21.5544L167.145 21.5544L166.57 20.736ZM168.874 17.664L169.804 18.0329L169.805 18.0279L168.874 17.664ZM168.874 7.968L167.943 8.33185L167.945 8.33684L168.874 7.968ZM166.57 4.864L167.145 4.04559L167.145 4.04559L166.57 4.864ZM159.562 4.864L158.987 4.04559L158.987 4.04559L159.562 4.864ZM157.258 7.968L158.188 8.33685L158.189 8.33185L157.258 7.968ZM157.258 17.664L156.327 18.0279L156.329 18.0328L157.258 17.664ZM159.562 20.736L158.987 21.5544L158.987 21.5544L159.562 20.736ZM163.082 23.48C160.997 23.48 159.152 23.015 157.522 22.1033L156.546 23.8487C158.5 24.9423 160.687 25.48 163.082 25.48V23.48ZM157.527 22.1058C155.914 21.1924 154.658 19.9362 153.744 18.3233L152.004 19.3087C153.096 21.2371 154.613 22.7542 156.541 23.8462L157.527 22.1058ZM153.744 18.3233C152.835 16.7177 152.37 14.8851 152.37 12.8H150.37C150.37 15.1949 150.908 17.373 152.004 19.3087L153.744 18.3233ZM152.37 12.8C152.37 10.7149 152.835 8.88233 153.744 7.27675L152.004 6.29125C150.908 8.22701 150.37 10.4051 150.37 12.8H152.37ZM153.744 7.27675C154.658 5.66376 155.914 4.40755 157.527 3.49417L156.541 1.75383C154.613 2.84578 153.096 4.3629 152.004 6.29125L153.744 7.27675ZM157.522 3.49668C159.152 2.58495 160.997 2.12 163.082 2.12V0.119999C160.687 0.119999 158.5 0.65771 156.546 1.75132L157.522 3.49668ZM163.082 2.12C165.144 2.12 166.966 2.58417 168.573 3.49417L169.559 1.75383C167.624 0.658492 165.457 0.119999 163.082 0.119999V2.12ZM168.578 3.49668C170.212 4.41088 171.476 5.6668 172.388 7.27675L174.128 6.29125C173.034 4.35986 171.504 2.84245 169.554 1.75132L168.578 3.49668ZM172.388 7.27675C173.297 8.88233 173.762 10.7149 173.762 12.8H175.762C175.762 10.4051 175.224 8.22701 174.128 6.29125L172.388 7.27675ZM173.762 12.8C173.762 14.8851 173.297 16.7177 172.388 18.3233L174.128 19.3087C175.224 17.373 175.762 15.1949 175.762 12.8H173.762ZM172.388 18.3233C171.476 19.9332 170.212 21.1891 168.578 22.1033L169.554 23.8487C171.504 22.7575 173.034 21.2401 174.128 19.3087L172.388 18.3233ZM168.573 22.1058C166.966 23.0158 165.144 23.48 163.082 23.48V25.48C165.457 25.48 167.624 24.9415 169.559 23.8462L168.573 22.1058ZM163.082 22.792C164.593 22.792 165.96 22.3861 167.145 21.5544L165.995 19.9176C165.175 20.4939 164.216 20.792 163.082 20.792V22.792ZM167.145 21.5544C168.334 20.7194 169.211 19.5248 169.803 18.0328L167.945 17.2952C167.47 18.4912 166.811 19.3446 165.995 19.9176L167.145 21.5544ZM169.805 18.0279C170.395 16.5191 170.674 14.7684 170.674 12.8H168.674C168.674 14.5862 168.42 16.0783 167.943 17.3001L169.805 18.0279ZM170.674 12.8C170.674 10.8322 170.395 9.08981 169.803 7.59915L167.945 8.33684C168.42 9.53418 168.674 11.0131 168.674 12.8H170.674ZM169.805 7.60415C169.215 6.09205 168.338 4.88332 167.145 4.04559L165.995 5.68241C166.808 6.25268 167.467 7.11328 167.943 8.33185L169.805 7.60415ZM167.145 4.04559C165.96 3.21387 164.593 2.808 163.082 2.808V4.808C164.216 4.808 165.175 5.10612 165.995 5.68241L167.145 4.04559ZM163.082 2.808C161.553 2.808 160.175 3.21193 158.987 4.04559L160.137 5.68241C160.955 5.10806 161.923 4.808 163.082 4.808V2.808ZM158.987 4.04559C157.794 4.88332 156.917 6.09205 156.327 7.60415L158.189 8.33185C158.665 7.11328 159.324 6.25268 160.137 5.68241L158.987 4.04559ZM156.329 7.59915C155.737 9.08981 155.458 10.8322 155.458 12.8H157.458C157.458 11.0131 157.712 9.53418 158.187 8.33684L156.329 7.59915ZM155.458 12.8C155.458 14.7684 155.737 16.5191 156.327 18.0279L158.189 17.3001C157.712 16.0783 157.458 14.5862 157.458 12.8H155.458ZM156.329 18.0328C156.921 19.5248 157.798 20.7194 158.987 21.5544L160.137 19.9176C159.321 19.3446 158.662 18.4912 158.187 17.2952L156.329 18.0328ZM158.987 21.5544C160.175 22.3881 161.553 22.792 163.082 22.792V20.792C161.923 20.792 160.955 20.4919 160.137 19.9176L158.987 21.5544ZM176.515 21.472V20.472H175.515V21.472H176.515ZM179.683 21.472V22.472H180.683V21.472H179.683ZM179.683 4.128H180.683V3.128H179.683V4.128ZM176.515 4.128H175.515V5.128H176.515V4.128ZM176.515 1.6V0.599998H175.515V1.6H176.515ZM187.587 1.6H188.587V0.599998H187.587V1.6ZM187.587 4.128V5.128H188.587V4.128H187.587ZM184.451 4.128V3.128H183.451V4.128H184.451ZM184.451 11.648H183.451V12.648H184.451V11.648ZM187.107 11.648V12.648H187.575L187.875 12.2885L187.107 11.648ZM193.379 4.128L194.147 4.7685L195.515 3.128H193.379V4.128ZM190.115 4.128H189.115V5.128H190.115V4.128ZM190.115 1.6V0.599998H189.115V1.6H190.115ZM199.267 1.6H200.267V0.599998H199.267V1.6ZM199.267 4.128V5.128H200.267V4.128H199.267ZM196.483 4.128V3.128H196.011L195.711 3.49255L196.483 4.128ZM190.979 10.816L190.207 10.1806L189.719 10.7731L190.165 11.3975L190.979 10.816ZM198.595 21.472L197.781 22.0535L198.081 22.472H198.595V21.472ZM200.931 21.472H201.931V20.472H200.931V21.472ZM200.931 24V25H201.931V24H200.931ZM189.603 24H188.603V25H189.603V24ZM189.603 21.472V20.472H188.603V21.472H189.603ZM192.739 21.472V22.472H194.724L193.543 20.8769L192.739 21.472ZM187.171 13.952L187.975 13.3569L187.675 12.952H187.171V13.952ZM184.451 13.952V12.952H183.451V13.952H184.451ZM184.451 21.472H183.451V22.472H184.451V21.472ZM187.491 21.472H188.491V20.472H187.491V21.472ZM187.491 24V25H188.491V24H187.491ZM176.515 24H175.515V25H176.515V24ZM176.515 22.472H179.683V20.472H176.515V22.472ZM180.683 21.472V4.128H178.683V21.472H180.683ZM179.683 3.128H176.515V5.128H179.683V3.128ZM177.515 4.128V1.6H175.515V4.128H177.515ZM176.515 2.6H187.587V0.599998H176.515V2.6ZM186.587 1.6V4.128H188.587V1.6H186.587ZM187.587 3.128H184.451V5.128H187.587V3.128ZM183.451 4.128V11.648H185.451V4.128H183.451ZM184.451 12.648H187.107V10.648H184.451V12.648ZM187.875 12.2885L194.147 4.7685L192.611 3.48749L186.339 11.0075L187.875 12.2885ZM193.379 3.128H190.115V5.128H193.379V3.128ZM191.115 4.128V1.6H189.115V4.128H191.115ZM190.115 2.6H199.267V0.599998H190.115V2.6ZM198.267 1.6V4.128H200.267V1.6H198.267ZM199.267 3.128H196.483V5.128H199.267V3.128ZM195.711 3.49255L190.207 10.1806L191.751 11.4514L197.255 4.76345L195.711 3.49255ZM190.165 11.3975L197.781 22.0535L199.409 20.8905L191.793 10.2345L190.165 11.3975ZM198.595 22.472H200.931V20.472H198.595V22.472ZM199.931 21.472V24H201.931V21.472H199.931ZM200.931 23H189.603V25H200.931V23ZM190.603 24V21.472H188.603V24H190.603ZM189.603 22.472H192.739V20.472H189.603V22.472ZM193.543 20.8769L187.975 13.3569L186.367 14.5471L191.935 22.0671L193.543 20.8769ZM187.171 12.952H184.451V14.952H187.171V12.952ZM183.451 13.952V21.472H185.451V13.952H183.451ZM184.451 22.472H187.491V20.472H184.451V22.472ZM186.491 21.472V24H188.491V21.472H186.491ZM187.491 23H176.515V25H187.491V23ZM177.515 24V21.472H175.515V24H177.515ZM201.093 15.072V14.072H200.093V15.072H201.093ZM203.653 15.072L204.652 15.0363L204.617 14.072H203.653V15.072ZM203.685 15.968L202.685 16.0037L202.685 16.0105L203.685 15.968ZM205.093 18.88L204.369 19.5705L204.377 19.5787L205.093 18.88ZM214.693 21.664L214.345 20.7262L214.334 20.7307L214.693 21.664ZM216.037 20.768L215.272 20.1239L215.268 20.1278L216.037 20.768ZM215.845 17.856L215.155 18.5801L215.163 18.5881L215.172 18.5959L215.845 17.856ZM214.053 16.768L213.672 17.6927L213.681 17.6965L214.053 16.768ZM211.013 15.68L211.324 14.7298L211.267 14.7111L211.209 14.6994L211.013 15.68ZM210.661 15.584L210.289 16.5125L210.316 16.5234L210.344 16.5327L210.661 15.584ZM210.341 15.488L209.633 16.1951L209.847 16.4092L210.144 16.4686L210.341 15.488ZM210.213 15.424L210.92 14.7169L210.754 14.5514L210.532 14.4765L210.213 15.424ZM205.861 13.696L206.295 12.7952L206.295 12.7952L205.861 13.696ZM202.757 11.296L201.982 11.9284L201.989 11.937L201.996 11.9455L202.757 11.296ZM202.469 4.032L203.286 4.60795L203.286 4.60795L202.469 4.032ZM205.221 1.888L205.606 2.81058L205.613 2.80761L205.62 2.80454L205.221 1.888ZM211.749 1.376L211.537 2.35343L211.542 2.35455L211.749 1.376ZM214.181 2.048L214.552 1.11952L214.528 1.11007L214.504 1.10183L214.181 2.048ZM215.397 2.592L215.844 1.69757L215.844 1.69757L215.397 2.592ZM216.453 3.232L215.861 4.0384L217.453 5.2054V3.232H216.453ZM216.453 0.383999V-0.616001H215.453V0.383999H216.453ZM218.981 0.383999H219.981V-0.616001H218.981V0.383999ZM218.981 9.824V10.824H219.981V9.824H218.981ZM216.485 9.824H215.485V10.824H216.485V9.824ZM216.485 9.024H217.485V8.99624L217.483 8.96853L216.485 9.024ZM215.141 6.656L214.442 7.37206L214.452 7.381L215.141 6.656ZM211.909 4.608L211.511 5.52556L211.52 5.52952L211.529 5.53331L211.909 4.608ZM205.669 4.48L206.269 5.28001L206.273 5.27669L205.669 4.48ZM205.477 7.968L204.769 8.67511L204.785 8.69117L204.802 8.70648L205.477 7.968ZM207.333 9.152L206.917 10.0615L206.928 10.0664L206.939 10.0711L207.333 9.152ZM210.437 10.272L210.129 11.2237L210.184 11.2413L210.24 11.2526L210.437 10.272ZM210.725 10.368L210.277 11.2624L210.397 11.3223L210.528 11.3486L210.725 10.368ZM211.077 10.432L211.448 9.50352L211.348 9.46338L211.241 9.4456L211.077 10.432ZM211.557 10.624L211.185 11.5525L211.216 11.5647L211.247 11.5749L211.557 10.624ZM215.909 12.32L215.468 13.2178L215.475 13.221L215.909 12.32ZM218.981 21.568L218.166 20.9885L218.161 20.9946L218.157 21.0007L218.981 21.568ZM216.197 23.744L215.817 22.819L216.197 23.744ZM208.933 24.192L209.129 23.2114L209.129 23.2114L208.933 24.192ZM206.149 23.424L205.77 24.3495L205.791 24.3581L205.812 24.3657L206.149 23.424ZM204.805 22.816L204.357 23.7104L204.357 23.7104L204.805 22.816ZM203.621 22.112L204.197 21.295L202.621 20.1821V22.112H203.621ZM203.621 24.96V25.96H204.621V24.96H203.621ZM201.093 24.96H200.093V25.96H201.093V24.96ZM201.093 16.072H203.653V14.072H201.093V16.072ZM202.653 15.1077L202.685 16.0037L204.684 15.9323L204.652 15.0363L202.653 15.1077ZM202.685 16.0105C202.741 17.3194 203.356 18.509 204.369 19.5705L205.816 18.1895C205.037 17.3736 204.713 16.6219 204.684 15.9255L202.685 16.0105ZM204.377 19.5787C205.382 20.6077 206.643 21.4245 208.133 22.0435L208.9 20.1965C207.617 19.6635 206.595 18.987 205.808 18.1813L204.377 19.5787ZM208.133 22.0435C209.635 22.6674 211.173 22.984 212.741 22.984V20.984C211.449 20.984 210.171 20.7246 208.9 20.1965L208.133 22.0435ZM212.741 22.984C213.58 22.984 214.357 22.8644 215.051 22.5973L214.334 20.7307C213.919 20.8902 213.395 20.984 212.741 20.984V22.984ZM215.04 22.6017C215.742 22.3415 216.35 21.954 216.805 21.4082L215.268 20.1278C215.083 20.35 214.795 20.5598 214.345 20.7263L215.04 22.6017ZM216.801 21.4121C217.296 20.8252 217.549 20.1274 217.549 19.36H215.549C215.549 19.6593 215.46 19.9001 215.272 20.1239L216.801 21.4121ZM217.549 19.36C217.549 18.4719 217.171 17.7109 216.517 17.1161L215.172 18.5959C215.456 18.8545 215.549 19.096 215.549 19.36H217.549ZM216.534 17.1319C215.971 16.5955 215.255 16.172 214.424 15.8395L213.681 17.6965C214.343 17.9614 214.822 18.2632 215.155 18.5801L216.534 17.1319ZM214.433 15.8433C213.674 15.5309 212.634 15.1594 211.324 14.7298L210.701 16.6302C211.993 17.054 212.98 17.4078 213.672 17.6927L214.433 15.8433ZM211.209 14.6994C211.151 14.6879 211.074 14.6678 210.977 14.6353L210.344 16.5327C210.503 16.5855 210.661 16.6295 210.816 16.6606L211.209 14.6994ZM211.032 14.6555C210.872 14.5914 210.706 14.5414 210.537 14.5074L210.144 16.4686C210.188 16.4773 210.236 16.4912 210.289 16.5125L211.032 14.6555ZM211.048 14.7809C210.917 14.6506 210.657 14.456 210.277 14.456V16.456C209.939 16.456 209.721 16.2828 209.633 16.1951L211.048 14.7809ZM210.277 14.456C210.614 14.456 210.832 14.6292 210.92 14.7169L209.505 16.1311C209.636 16.2614 209.896 16.456 210.277 16.456V14.456ZM210.532 14.4765C208.852 13.9094 207.442 13.3483 206.295 12.7952L205.426 14.5968C206.669 15.1957 208.16 15.7866 209.893 16.3715L210.532 14.4765ZM206.295 12.7952C205.227 12.2804 204.303 11.5667 203.517 10.6465L201.996 11.9455C202.959 13.0733 204.105 13.9596 205.426 14.5968L206.295 12.7952ZM203.531 10.6636C202.846 9.82376 202.477 8.75623 202.477 7.392H200.477C200.477 9.14244 200.961 10.6776 201.982 11.9284L203.531 10.6636ZM202.477 7.392C202.477 6.26831 202.759 5.35611 203.286 4.60795L201.651 3.45605C200.855 4.58522 200.477 5.91302 200.477 7.392H202.477ZM203.286 4.60795C203.827 3.8394 204.587 3.2367 205.606 2.81058L204.835 0.965419C203.507 1.52063 202.432 2.34726 201.651 3.45605L203.286 4.60795ZM205.62 2.80454C206.647 2.35672 207.851 2.12 209.253 2.12V0.119999C207.625 0.119999 206.141 0.395276 204.821 0.971459L205.62 2.80454ZM209.253 2.12C210.062 2.12 210.823 2.19894 211.537 2.35341L211.96 0.398585C211.096 0.21172 210.192 0.119999 209.253 0.119999V2.12ZM211.542 2.35455C212.312 2.51655 213.083 2.72956 213.857 2.99416L214.504 1.10183C213.656 0.811768 212.806 0.576785 211.955 0.397449L211.542 2.35455ZM213.809 2.97647C214.212 3.13756 214.592 3.30765 214.949 3.48643L215.844 1.69757C215.433 1.49235 215.003 1.29977 214.552 1.11952L213.809 2.97647ZM214.949 3.48643C215.287 3.65524 215.59 3.83968 215.861 4.0384L217.044 2.42559C216.675 2.15499 216.274 1.91276 215.844 1.69757L214.949 3.48643ZM217.453 3.232V0.383999H215.453V3.232H217.453ZM216.453 1.384H218.981V-0.616001H216.453V1.384ZM217.981 0.383999V9.824H219.981V0.383999H217.981ZM218.981 8.824H216.485V10.824H218.981V8.824ZM217.485 9.824V9.024H215.485V9.824H217.485ZM217.483 8.96853C217.42 7.83976 216.772 6.82678 215.829 5.931L214.452 7.381C215.215 8.10655 215.463 8.67224 215.486 9.07947L217.483 8.96853ZM215.839 5.94C214.878 5.00383 213.687 4.25609 212.288 3.68269L211.529 5.53331C212.733 6.02658 213.696 6.64416 214.442 7.372L215.839 5.94ZM212.306 3.69044C210.917 3.08832 209.523 2.776 208.133 2.776V4.776C209.217 4.776 210.34 5.01835 211.511 5.52556L212.306 3.69044ZM208.133 2.776C206.96 2.776 205.905 3.0455 205.064 3.68331L206.273 5.27669C206.669 4.97583 207.257 4.776 208.133 4.776V2.776ZM205.069 3.68C204.211 4.32311 203.773 5.23181 203.773 6.304H205.773C205.773 5.84018 205.931 5.53289 206.268 5.28L205.069 3.68ZM203.773 6.304C203.773 7.22 204.12 8.026 204.769 8.67511L206.184 7.26089C205.894 6.97133 205.773 6.668 205.773 6.304H203.773ZM204.802 8.70648C205.385 9.23882 206.097 9.68669 206.917 10.0615L207.748 8.24252C207.075 7.93464 206.549 7.59318 206.151 7.22951L204.802 8.70648ZM206.939 10.0711C207.727 10.4089 208.795 10.7932 210.129 11.2237L210.744 9.32029C209.433 8.89748 208.432 8.5351 207.726 8.23285L206.939 10.0711ZM210.24 11.2526C210.272 11.2589 210.282 11.2646 210.277 11.2624L211.172 9.47357C210.997 9.38605 210.814 9.32779 210.633 9.29142L210.24 11.2526ZM210.528 11.3486C210.647 11.3724 210.775 11.3956 210.912 11.4184L211.241 9.4456C211.122 9.42571 211.015 9.40629 210.921 9.38742L210.528 11.3486ZM210.705 11.3605L211.185 11.5525L211.928 9.69552L211.448 9.50352L210.705 11.3605ZM211.247 11.5749C212.992 12.1426 214.395 12.6912 215.468 13.2178L216.349 11.4222C215.161 10.8395 213.662 10.2574 211.866 9.67305L211.247 11.5749ZM215.475 13.221C216.505 13.717 217.361 14.3778 218.055 15.2036L219.586 13.9164C218.702 12.8648 217.616 12.0324 216.342 11.419L215.475 13.221ZM218.055 15.2036C218.673 15.9385 219.005 16.8641 219.005 18.048H221.005C221.005 16.4586 220.547 15.0588 219.586 13.9164L218.055 15.2036ZM219.005 18.048C219.005 19.2648 218.708 20.2262 218.166 20.9885L219.795 22.1475C220.619 20.9898 221.005 19.6045 221.005 18.048H219.005ZM218.157 21.0007C217.617 21.784 216.852 22.3938 215.817 22.819L216.576 24.669C217.93 24.1129 219.021 23.272 219.804 22.1353L218.157 21.0007ZM215.817 22.819C214.766 23.2505 213.513 23.48 212.037 23.48V25.48C213.717 25.48 215.238 25.2189 216.576 24.669L215.817 22.819ZM212.037 23.48C210.984 23.48 210.016 23.3889 209.129 23.2114L208.736 25.1726C209.769 25.3791 210.87 25.48 212.037 25.48V23.48ZM209.129 23.2114C208.215 23.0287 207.334 22.7855 206.485 22.4823L205.812 24.3657C206.755 24.7025 207.73 24.9713 208.736 25.1726L209.129 23.2114ZM206.527 22.4985C206.08 22.3154 205.655 22.123 205.252 21.9216L204.357 23.7104C204.808 23.9357 205.279 24.1486 205.77 24.3495L206.527 22.4985ZM205.252 21.9216C204.867 21.7291 204.516 21.5199 204.197 21.295L203.044 22.929C203.451 23.2161 203.889 23.4762 204.357 23.7104L205.252 21.9216ZM202.621 22.112V24.96H204.621V22.112H202.621ZM203.621 23.96H201.093V25.96H203.621V23.96ZM202.093 24.96V15.072H200.093V24.96H202.093Z" fill="#C160D0" mask="url(#path-1-outside-1_1_2)"/>
</g>
</svg>
