<svg width="191" height="25" viewBox="0 0 191 25" fill="none" xmlns="http://www.w3.org/2000/svg">
<g style="mix-blend-mode:plus-darker">
<path d="M0.64 21.472H3.808V4.128H0.64V1.6H12.48C15.0827 1.6 17.12 2.112 18.592 3.136C20.0853 4.13867 20.832 5.54667 20.832 7.36C20.832 8.61867 20.4267 9.70667 19.616 10.624C18.8267 11.52 17.696 12.1707 16.224 12.576V12.8C17.9733 13.1413 19.3173 13.7813 20.256 14.72C21.1947 15.6373 21.664 16.8107 21.664 18.24C21.664 20.032 20.928 21.44 19.456 22.464C18.0053 23.488 15.9893 24 13.408 24H0.64V21.472ZM12.704 21.536C13.9413 21.536 14.9013 21.2053 15.584 20.544C16.2667 19.8827 16.608 18.9547 16.608 17.76C16.608 16.544 16.256 15.6053 15.552 14.944C14.848 14.2613 13.8987 13.92 12.704 13.92H8.576V21.536H12.704ZM11.968 11.68C13.2267 11.68 14.1973 11.3493 14.88 10.688C15.584 10.0053 15.936 9.056 15.936 7.84C15.936 6.64533 15.584 5.71733 14.88 5.056C14.1973 4.39467 13.2267 4.064 11.968 4.064H8.576V11.68H11.968ZM21.0227 21.472H23.8068L30.2388 5.216L29.8868 4.128H26.9427V1.6H36.4468L43.6148 21.472H46.4308V24H34.7508V21.472H38.5268L36.7668 16.64H28.3828L26.4948 21.472H30.7508V24H21.0227V21.472ZM36.0308 14.464L32.8628 5.824H32.6068L29.1828 14.464H36.0308ZM45.6088 21.472H48.7768V4.128H45.6088V1.6H57.4488C60.0514 1.6 62.0888 2.112 63.5608 3.136C65.0541 4.13867 65.8008 5.54667 65.8008 7.36C65.8008 8.61867 65.3954 9.70667 64.5848 10.624C63.7954 11.52 62.6648 12.1707 61.1928 12.576V12.8C62.9421 13.1413 64.2861 13.7813 65.2248 14.72C66.1634 15.6373 66.6328 16.8107 66.6328 18.24C66.6328 20.032 65.8968 21.44 64.4248 22.464C62.9741 23.488 60.9581 24 58.3768 24H45.6088V21.472ZM57.6728 21.536C58.9101 21.536 59.8701 21.2053 60.5528 20.544C61.2354 19.8827 61.5768 18.9547 61.5768 17.76C61.5768 16.544 61.2248 15.6053 60.5208 14.944C59.8168 14.2613 58.8674 13.92 57.6728 13.92H53.5448V21.536H57.6728ZM56.9368 11.68C58.1954 11.68 59.1661 11.3493 59.8488 10.688C60.5528 10.0053 60.9048 9.056 60.9048 7.84C60.9048 6.64533 60.5528 5.71733 59.8488 5.056C59.1661 4.39467 58.1954 4.064 56.9368 4.064H53.5448V11.68H56.9368ZM71.413 21.472H75.573V15.424L68.309 4.128H65.557V1.6H77.461V4.128H73.653L79.189 13.184L84.693 4.128H80.917V1.6H90.485V4.128H87.701L80.469 15.456V21.472H84.629V24H71.413V21.472Z" fill="#6C63FF"/>
<path d="M98.1238 15.072H100.684L100.716 15.968C100.758 16.9707 101.228 17.9413 102.124 18.88C103.02 19.7973 104.161 20.544 105.548 21.12C106.934 21.696 108.342 21.984 109.772 21.984C110.518 21.984 111.169 21.8773 111.724 21.664C112.3 21.4507 112.748 21.152 113.068 20.768C113.409 20.3627 113.58 19.8933 113.58 19.36C113.58 18.784 113.345 18.2827 112.876 17.856C112.428 17.4293 111.83 17.0667 111.084 16.768C110.358 16.4693 109.345 16.1067 108.044 15.68C107.937 15.6587 107.82 15.6267 107.692 15.584C107.585 15.5413 107.478 15.5093 107.372 15.488C107.35 15.4667 107.329 15.456 107.308 15.456C107.286 15.456 107.265 15.4453 107.244 15.424C105.537 14.848 104.086 14.272 102.892 13.696C101.697 13.12 100.662 12.32 99.7878 11.296C98.9344 10.2507 98.5078 8.94933 98.5078 7.392C98.5078 6.09067 98.8384 4.97067 99.4998 4.032C100.161 3.09333 101.078 2.37867 102.252 1.888C103.425 1.376 104.769 1.12 106.284 1.12C107.158 1.12 107.99 1.20533 108.78 1.376C109.59 1.54667 110.401 1.77066 111.212 2.048C111.638 2.21867 112.044 2.4 112.428 2.592C112.812 2.784 113.164 2.99733 113.484 3.232V0.383999H116.012V9.824H113.516V9.024C113.473 8.256 113.025 7.46667 112.172 6.656C111.318 5.824 110.241 5.14133 108.94 4.608C107.66 4.05333 106.401 3.776 105.164 3.776C104.14 3.776 103.318 4.01067 102.7 4.48C102.102 4.928 101.804 5.536 101.804 6.304C101.804 6.944 102.038 7.49867 102.508 7.968C102.998 8.416 103.617 8.81067 104.364 9.152C105.11 9.472 106.145 9.84533 107.468 10.272C107.574 10.2933 107.67 10.3253 107.756 10.368C107.862 10.3893 107.98 10.4107 108.108 10.432L108.588 10.624C110.358 11.2 111.809 11.7653 112.94 12.32C114.092 12.8747 115.062 13.6213 115.852 14.56C116.641 15.4987 117.036 16.6613 117.036 18.048C117.036 19.4347 116.694 20.608 116.012 21.568C115.35 22.528 114.422 23.2533 113.228 23.744C112.033 24.2347 110.646 24.48 109.068 24.48C107.958 24.48 106.924 24.384 105.964 24.192C105.004 24 104.076 23.744 103.18 23.424C102.71 23.232 102.262 23.0293 101.836 22.816C101.409 22.6027 101.014 22.368 100.652 22.112V24.96H98.1238V15.072ZM118.64 21.472H121.808V4.128H118.64V1.6H129.872V4.128H126.576V11.616H135.664V4.128H132.368V1.6H143.6V4.128H140.432V21.472H143.6V24H132.368V21.472H135.664V13.984H126.576V21.472H129.872V24H118.64V21.472ZM157.082 24.48C154.842 24.48 152.826 23.9787 151.034 22.976C149.263 21.9733 147.877 20.5867 146.874 18.816C145.871 17.0453 145.37 15.04 145.37 12.8C145.37 10.56 145.871 8.55467 146.874 6.784C147.877 5.01333 149.263 3.62667 151.034 2.624C152.826 1.62133 154.842 1.12 157.082 1.12C159.301 1.12 161.295 1.62133 163.066 2.624C164.858 3.62667 166.255 5.01333 167.258 6.784C168.261 8.55467 168.762 10.56 168.762 12.8C168.762 15.04 168.261 17.0453 167.258 18.816C166.255 20.5867 164.858 21.9733 163.066 22.976C161.295 23.9787 159.301 24.48 157.082 24.48ZM157.082 21.792C158.405 21.792 159.567 21.44 160.57 20.736C161.573 20.032 162.341 19.008 162.874 17.664C163.407 16.2987 163.674 14.6773 163.674 12.8C163.674 10.9227 163.407 9.312 162.874 7.968C162.341 6.60267 161.573 5.568 160.57 4.864C159.567 4.16 158.405 3.808 157.082 3.808C155.738 3.808 154.565 4.16 153.562 4.864C152.559 5.568 151.791 6.60267 151.258 7.968C150.725 9.312 150.458 10.9227 150.458 12.8C150.458 14.6773 150.725 16.2987 151.258 17.664C151.791 19.008 152.559 20.032 153.562 20.736C154.565 21.44 155.738 21.792 157.082 21.792ZM170.515 21.472H173.683V4.128H170.515V1.6H181.843C184.595 1.6 186.75 2.19733 188.307 3.392C189.886 4.56533 190.675 6.19733 190.675 8.288C190.675 10.3787 189.886 12.0213 188.307 13.216C186.728 14.4107 184.574 15.008 181.843 15.008H178.451V21.472H182.707V24H170.515V21.472ZM181.555 12.832C182.878 12.832 183.902 12.448 184.627 11.68C185.374 10.912 185.747 9.83467 185.747 8.448C185.747 7.04 185.374 5.952 184.627 5.184C183.902 4.416 182.878 4.032 181.555 4.032H178.451V12.832H181.555Z" fill="#E6E6FA"/>
</g>
</svg>
