<svg width="210" height="28" viewBox="0 0 210 28" fill="none" xmlns="http://www.w3.org/2000/svg">
<g style="mix-blend-mode:plus-darker">
<mask id="path-1-outside-1_1_2" maskUnits="userSpaceOnUse" x="-1" y="-1" width="212" height="30" fill="black">
<rect fill="white" x="-1" y="-1" width="212" height="30"/>
<path d="M6.4 7.72V22.472H10.496V25H0.64V22.472H3.808V6.152L2.976 5.128H0.128V2.6H8.608L19.488 17.864V5.128H15.968V2.6H25.056V5.128H22.08V25.8H19.456L6.4 7.72ZM43.5145 25H26.2025V22.472H29.3705V5.128H26.2025V2.6H42.3305V0.679998H44.8585V10.632H42.3625V7.496C42.3625 7.176 42.2238 6.83467 41.9465 6.472C41.6905 6.088 41.3492 5.768 40.9225 5.512C40.4958 5.23467 40.0372 5.096 39.5465 5.096H34.0425V12.584H36.4425C36.6985 12.584 36.9225 12.52 37.1145 12.392C37.3065 12.264 37.4452 12.104 37.5305 11.912C37.6372 11.72 37.6905 11.528 37.6905 11.336V9.928H39.5465V17.672H37.6905V16.264C37.6905 16.072 37.6372 15.88 37.5305 15.688C37.4452 15.496 37.3065 15.336 37.1145 15.208C36.9225 15.08 36.6985 15.016 36.4425 15.016H34.0425V22.504H40.1865C40.7625 22.504 41.2958 22.3547 41.7865 22.056C42.2985 21.7573 42.7038 21.3947 43.0025 20.968C43.3225 20.5413 43.4825 20.1467 43.4825 19.784V16.648H46.0425V27.016H43.5145V25ZM66.1458 23.528C66.1458 23.2933 66.0818 23.112 65.9538 22.984C65.8471 22.856 65.7191 22.8027 65.5698 22.824C65.3351 22.952 65.1004 23.1013 64.8658 23.272C64.6311 23.4213 64.3644 23.592 64.0658 23.784C63.2338 24.3173 62.3911 24.7333 61.5378 25.032C60.6844 25.3307 59.6818 25.48 58.5298 25.48C56.4818 25.48 54.6364 24.9893 52.9938 24.008C51.3724 23.0053 50.0818 21.6187 49.1218 19.848C48.1831 18.0773 47.7138 16.0613 47.7138 13.8C47.7138 11.5387 48.1831 9.52267 49.1218 7.752C50.0818 5.98133 51.3938 4.60533 53.0578 3.624C54.7218 2.62133 56.5884 2.12 58.6578 2.12C59.7458 2.12 60.8231 2.28 61.8898 2.6C62.9138 2.89867 63.9378 3.34667 64.9618 3.944V1.224H67.4898V10.664H65.0258V10.024C64.9618 9.21333 64.6311 8.40267 64.0338 7.592C63.4364 6.78133 62.6791 6.10933 61.7618 5.576C60.8444 5.04267 59.8951 4.776 58.9138 4.776C57.6978 4.776 56.6204 5.128 55.6818 5.832C54.7644 6.536 54.0498 7.57067 53.5378 8.936C53.0258 10.3013 52.7698 11.9227 52.7698 13.8C52.7698 15.72 53.0258 17.3733 53.5378 18.76C54.0498 20.1253 54.7644 21.1707 55.6818 21.896C56.6204 22.6 57.6871 22.952 58.8818 22.952C59.8204 22.952 60.6844 22.7813 61.4738 22.44C62.2631 22.0987 62.8924 21.608 63.3618 20.968C63.8524 20.3067 64.1298 19.528 64.1938 18.632V15.304H59.2018V13.096H71.6178V15.528H68.8978V25.704H66.1458V23.528ZM72.2025 22.472H75.3705V5.128H72.2025V2.6H83.3065V5.128H80.1385V22.472H83.3065V25H72.2025V22.472Z"/>
<path d="M92.5775 22.472H95.7455V5.128H92.5775V2.6H104.418C107.02 2.6 109.058 3.112 110.53 4.136C112.023 5.13867 112.77 6.54667 112.77 8.36C112.77 9.61867 112.364 10.7067 111.554 11.624C110.764 12.52 109.634 13.1707 108.162 13.576V13.8C109.911 14.1413 111.255 14.7813 112.194 15.72C113.132 16.6373 113.602 17.8107 113.602 19.24C113.602 21.032 112.866 22.44 111.394 23.464C109.943 24.488 107.927 25 105.346 25H92.5775V22.472ZM104.642 22.536C105.879 22.536 106.839 22.2053 107.522 21.544C108.204 20.8827 108.546 19.9547 108.546 18.76C108.546 17.544 108.194 16.6053 107.49 15.944C106.786 15.2613 105.836 14.92 104.642 14.92H100.514V22.536H104.642ZM103.906 12.68C105.164 12.68 106.135 12.3493 106.818 11.688C107.522 11.0053 107.874 10.056 107.874 8.84C107.874 7.64533 107.522 6.71733 106.818 6.056C106.135 5.39467 105.164 5.064 103.906 5.064H100.514V12.68H103.906ZM127.207 25.48C124.967 25.48 122.951 24.9787 121.159 23.976C119.388 22.9733 118.002 21.5867 116.999 19.816C115.996 18.0453 115.495 16.04 115.495 13.8C115.495 11.56 115.996 9.55467 116.999 7.784C118.002 6.01333 119.388 4.62667 121.159 3.624C122.951 2.62133 124.967 2.12 127.207 2.12C129.426 2.12 131.42 2.62133 133.191 3.624C134.983 4.62667 136.38 6.01333 137.383 7.784C138.386 9.55467 138.887 11.56 138.887 13.8C138.887 16.04 138.386 18.0453 137.383 19.816C136.38 21.5867 134.983 22.9733 133.191 23.976C131.42 24.9787 129.426 25.48 127.207 25.48ZM127.207 22.792C128.53 22.792 129.692 22.44 130.695 21.736C131.698 21.032 132.466 20.008 132.999 18.664C133.532 17.2987 133.799 15.6773 133.799 13.8C133.799 11.9227 133.532 10.312 132.999 8.968C132.466 7.60267 131.698 6.568 130.695 5.864C129.692 5.16 128.53 4.808 127.207 4.808C125.863 4.808 124.69 5.16 123.687 5.864C122.684 6.568 121.916 7.60267 121.383 8.968C120.85 10.312 120.583 11.9227 120.583 13.8C120.583 15.6773 120.85 17.2987 121.383 18.664C121.916 20.008 122.684 21.032 123.687 21.736C124.69 22.44 125.863 22.792 127.207 22.792ZM152.832 25.48C150.592 25.48 148.576 24.9787 146.784 23.976C145.013 22.9733 143.627 21.5867 142.624 19.816C141.621 18.0453 141.12 16.04 141.12 13.8C141.12 11.56 141.621 9.55467 142.624 7.784C143.627 6.01333 145.013 4.62667 146.784 3.624C148.576 2.62133 150.592 2.12 152.832 2.12C155.051 2.12 157.045 2.62133 158.816 3.624C160.608 4.62667 162.005 6.01333 163.008 7.784C164.011 9.55467 164.512 11.56 164.512 13.8C164.512 16.04 164.011 18.0453 163.008 19.816C162.005 21.5867 160.608 22.9733 158.816 23.976C157.045 24.9787 155.051 25.48 152.832 25.48ZM152.832 22.792C154.155 22.792 155.317 22.44 156.32 21.736C157.323 21.032 158.091 20.008 158.624 18.664C159.157 17.2987 159.424 15.6773 159.424 13.8C159.424 11.9227 159.157 10.312 158.624 8.968C158.091 7.60267 157.323 6.568 156.32 5.864C155.317 5.16 154.155 4.808 152.832 4.808C151.488 4.808 150.315 5.16 149.312 5.864C148.309 6.568 147.541 7.60267 147.008 8.968C146.475 10.312 146.208 11.9227 146.208 13.8C146.208 15.6773 146.475 17.2987 147.008 18.664C147.541 20.008 148.309 21.032 149.312 21.736C150.315 22.44 151.488 22.792 152.832 22.792ZM166.265 22.472H169.433V5.128H166.265V2.6H177.337V5.128H174.201V12.648H176.857L183.129 5.128H179.865V2.6H189.017V5.128H186.233L180.729 11.816L188.345 22.472H190.681V25H179.353V22.472H182.489L176.921 14.952H174.201V22.472H177.241V25H166.265V22.472ZM190.843 16.072H193.403L193.435 16.968C193.477 17.9707 193.947 18.9413 194.843 19.88C195.739 20.7973 196.88 21.544 198.267 22.12C199.653 22.696 201.061 22.984 202.491 22.984C203.237 22.984 203.888 22.8773 204.443 22.664C205.019 22.4507 205.467 22.152 205.787 21.768C206.128 21.3627 206.299 20.8933 206.299 20.36C206.299 19.784 206.064 19.2827 205.595 18.856C205.147 18.4293 204.549 18.0667 203.803 17.768C203.077 17.4693 202.064 17.1067 200.763 16.68C200.656 16.6587 200.539 16.6267 200.411 16.584C200.304 16.5413 200.197 16.5093 200.091 16.488C200.069 16.4667 200.048 16.456 200.027 16.456C200.005 16.456 199.984 16.4453 199.963 16.424C198.256 15.848 196.805 15.272 195.611 14.696C194.416 14.12 193.381 13.32 192.507 12.296C191.653 11.2507 191.227 9.94933 191.227 8.392C191.227 7.09067 191.557 5.97067 192.219 5.032C192.88 4.09333 193.797 3.37867 194.971 2.888C196.144 2.376 197.488 2.12 199.003 2.12C199.877 2.12 200.709 2.20533 201.499 2.376C202.309 2.54667 203.12 2.77066 203.931 3.048C204.357 3.21867 204.763 3.4 205.147 3.592C205.531 3.784 205.883 3.99733 206.203 4.232V1.384H208.731V10.824H206.235V10.024C206.192 9.256 205.744 8.46667 204.891 7.656C204.037 6.824 202.96 6.14133 201.659 5.608C200.379 5.05333 199.12 4.776 197.883 4.776C196.859 4.776 196.037 5.01067 195.419 5.48C194.821 5.928 194.523 6.536 194.523 7.304C194.523 7.944 194.757 8.49867 195.227 8.968C195.717 9.416 196.336 9.81067 197.083 10.152C197.829 10.472 198.864 10.8453 200.187 11.272C200.293 11.2933 200.389 11.3253 200.475 11.368C200.581 11.3893 200.699 11.4107 200.827 11.432L201.307 11.624C203.077 12.2 204.528 12.7653 205.659 13.32C206.811 13.8747 207.781 14.6213 208.571 15.56C209.36 16.4987 209.755 17.6613 209.755 19.048C209.755 20.4347 209.413 21.608 208.731 22.568C208.069 23.528 207.141 24.2533 205.947 24.744C204.752 25.2347 203.365 25.48 201.787 25.48C200.677 25.48 199.643 25.384 198.683 25.192C197.723 25 196.795 24.744 195.899 24.424C195.429 24.232 194.981 24.0293 194.555 23.816C194.128 23.6027 193.733 23.368 193.371 23.112V25.96H190.843V16.072Z"/>
</mask>
<path d="M6.4 7.72V22.472H10.496V25H0.64V22.472H3.808V6.152L2.976 5.128H0.128V2.6H8.608L19.488 17.864V5.128H15.968V2.6H25.056V5.128H22.08V25.8H19.456L6.4 7.72ZM43.5145 25H26.2025V22.472H29.3705V5.128H26.2025V2.6H42.3305V0.679998H44.8585V10.632H42.3625V7.496C42.3625 7.176 42.2238 6.83467 41.9465 6.472C41.6905 6.088 41.3492 5.768 40.9225 5.512C40.4958 5.23467 40.0372 5.096 39.5465 5.096H34.0425V12.584H36.4425C36.6985 12.584 36.9225 12.52 37.1145 12.392C37.3065 12.264 37.4452 12.104 37.5305 11.912C37.6372 11.72 37.6905 11.528 37.6905 11.336V9.928H39.5465V17.672H37.6905V16.264C37.6905 16.072 37.6372 15.88 37.5305 15.688C37.4452 15.496 37.3065 15.336 37.1145 15.208C36.9225 15.08 36.6985 15.016 36.4425 15.016H34.0425V22.504H40.1865C40.7625 22.504 41.2958 22.3547 41.7865 22.056C42.2985 21.7573 42.7038 21.3947 43.0025 20.968C43.3225 20.5413 43.4825 20.1467 43.4825 19.784V16.648H46.0425V27.016H43.5145V25ZM66.1458 23.528C66.1458 23.2933 66.0818 23.112 65.9538 22.984C65.8471 22.856 65.7191 22.8027 65.5698 22.824C65.3351 22.952 65.1004 23.1013 64.8658 23.272C64.6311 23.4213 64.3644 23.592 64.0658 23.784C63.2338 24.3173 62.3911 24.7333 61.5378 25.032C60.6844 25.3307 59.6818 25.48 58.5298 25.48C56.4818 25.48 54.6364 24.9893 52.9938 24.008C51.3724 23.0053 50.0818 21.6187 49.1218 19.848C48.1831 18.0773 47.7138 16.0613 47.7138 13.8C47.7138 11.5387 48.1831 9.52267 49.1218 7.752C50.0818 5.98133 51.3938 4.60533 53.0578 3.624C54.7218 2.62133 56.5884 2.12 58.6578 2.12C59.7458 2.12 60.8231 2.28 61.8898 2.6C62.9138 2.89867 63.9378 3.34667 64.9618 3.944V1.224H67.4898V10.664H65.0258V10.024C64.9618 9.21333 64.6311 8.40267 64.0338 7.592C63.4364 6.78133 62.6791 6.10933 61.7618 5.576C60.8444 5.04267 59.8951 4.776 58.9138 4.776C57.6978 4.776 56.6204 5.128 55.6818 5.832C54.7644 6.536 54.0498 7.57067 53.5378 8.936C53.0258 10.3013 52.7698 11.9227 52.7698 13.8C52.7698 15.72 53.0258 17.3733 53.5378 18.76C54.0498 20.1253 54.7644 21.1707 55.6818 21.896C56.6204 22.6 57.6871 22.952 58.8818 22.952C59.8204 22.952 60.6844 22.7813 61.4738 22.44C62.2631 22.0987 62.8924 21.608 63.3618 20.968C63.8524 20.3067 64.1298 19.528 64.1938 18.632V15.304H59.2018V13.096H71.6178V15.528H68.8978V25.704H66.1458V23.528ZM72.2025 22.472H75.3705V5.128H72.2025V2.6H83.3065V5.128H80.1385V22.472H83.3065V25H72.2025V22.472Z" fill="#C160D0"/>
<path d="M6.4 7.72L7.21072 7.13456L5.4 4.62707V7.72H6.4ZM6.4 22.472H5.4V23.472H6.4V22.472ZM10.496 22.472H11.496V21.472H10.496V22.472ZM10.496 25V26H11.496V25H10.496ZM0.64 25H-0.36V26H0.64V25ZM0.64 22.472V21.472H-0.36V22.472H0.64ZM3.808 22.472V23.472H4.808V22.472H3.808ZM3.808 6.152H4.808V5.79696L4.58411 5.52141L3.808 6.152ZM2.976 5.128L3.75211 4.49741L3.45197 4.128H2.976V5.128ZM0.128 5.128H-0.872V6.128H0.128V5.128ZM0.128 2.6V1.6H-0.872V2.6H0.128ZM8.608 2.6L9.42231 2.01957L9.12325 1.6H8.608V2.6ZM19.488 17.864L18.6737 18.4444L20.488 20.9898V17.864H19.488ZM19.488 5.128H20.488V4.128H19.488V5.128ZM15.968 5.128H14.968V6.128H15.968V5.128ZM15.968 2.6V1.6H14.968V2.6H15.968ZM25.056 2.6H26.056V1.6H25.056V2.6ZM25.056 5.128V6.128H26.056V5.128H25.056ZM22.08 5.128V4.128H21.08V5.128H22.08ZM22.08 25.8V26.8H23.08V25.8H22.08ZM19.456 25.8L18.6453 26.3854L18.9446 26.8H19.456V25.8ZM5.4 7.72V22.472H7.4V7.72H5.4ZM6.4 23.472H10.496V21.472H6.4V23.472ZM9.496 22.472V25H11.496V22.472H9.496ZM10.496 24H0.64V26H10.496V24ZM1.64 25V22.472H-0.36V25H1.64ZM0.64 23.472H3.808V21.472H0.64V23.472ZM4.808 22.472V6.152H2.808V22.472H4.808ZM4.58411 5.52141L3.75211 4.49741L2.19989 5.75859L3.03189 6.78259L4.58411 5.52141ZM2.976 4.128H0.128V6.128H2.976V4.128ZM1.128 5.128V2.6H-0.872V5.128H1.128ZM0.128 3.6H8.608V1.6H0.128V3.6ZM7.79369 3.18043L18.6737 18.4444L20.3023 17.2836L9.42231 2.01957L7.79369 3.18043ZM20.488 17.864V5.128H18.488V17.864H20.488ZM19.488 4.128H15.968V6.128H19.488V4.128ZM16.968 5.128V2.6H14.968V5.128H16.968ZM15.968 3.6H25.056V1.6H15.968V3.6ZM24.056 2.6V5.128H26.056V2.6H24.056ZM25.056 4.128H22.08V6.128H25.056V4.128ZM21.08 5.128V25.8H23.08V5.128H21.08ZM22.08 24.8H19.456V26.8H22.08V24.8ZM20.2667 25.2146L7.21072 7.13456L5.58928 8.30544L18.6453 26.3854L20.2667 25.2146ZM43.5145 25H44.5145V24H43.5145V25ZM26.2025 25H25.2025V26H26.2025V25ZM26.2025 22.472V21.472H25.2025V22.472H26.2025ZM29.3705 22.472V23.472H30.3705V22.472H29.3705ZM29.3705 5.128H30.3705V4.128H29.3705V5.128ZM26.2025 5.128H25.2025V6.128H26.2025V5.128ZM26.2025 2.6V1.6H25.2025V2.6H26.2025ZM42.3305 2.6V3.6H43.3305V2.6H42.3305ZM42.3305 0.679998V-0.320002H41.3305V0.679998H42.3305ZM44.8585 0.679998H45.8585V-0.320002H44.8585V0.679998ZM44.8585 10.632V11.632H45.8585V10.632H44.8585ZM42.3625 10.632H41.3625V11.632H42.3625V10.632ZM41.9465 6.472L41.1145 7.0267L41.1324 7.05369L41.1521 7.07945L41.9465 6.472ZM40.9225 5.512L40.3775 6.35044L40.3926 6.36024L40.408 6.36949L40.9225 5.512ZM34.0425 5.096V4.096H33.0425V5.096H34.0425ZM34.0425 12.584H33.0425V13.584H34.0425V12.584ZM37.1145 12.392L36.5598 11.5599L36.5598 11.5599L37.1145 12.392ZM37.5305 11.912L36.6563 11.4264L36.6347 11.4652L36.6167 11.5059L37.5305 11.912ZM37.6905 9.928V8.928H36.6905V9.928H37.6905ZM39.5465 9.928H40.5465V8.928H39.5465V9.928ZM39.5465 17.672V18.672H40.5465V17.672H39.5465ZM37.6905 17.672H36.6905V18.672H37.6905V17.672ZM37.5305 15.688L36.6167 16.0941L36.6347 16.1348L36.6563 16.1736L37.5305 15.688ZM37.1145 15.208L37.6692 14.376L37.6692 14.3759L37.1145 15.208ZM34.0425 15.016V14.016H33.0425V15.016H34.0425ZM34.0425 22.504H33.0425V23.504H34.0425V22.504ZM41.7865 22.056L41.2826 21.1922L41.2745 21.1969L41.2666 21.2018L41.7865 22.056ZM43.0025 20.968L42.2025 20.368L42.1927 20.3811L42.1833 20.3945L43.0025 20.968ZM43.4825 16.648V15.648H42.4825V16.648H43.4825ZM46.0425 16.648H47.0425V15.648H46.0425V16.648ZM46.0425 27.016V28.016H47.0425V27.016H46.0425ZM43.5145 27.016H42.5145V28.016H43.5145V27.016ZM43.5145 24H26.2025V26H43.5145V24ZM27.2025 25V22.472H25.2025V25H27.2025ZM26.2025 23.472H29.3705V21.472H26.2025V23.472ZM30.3705 22.472V5.128H28.3705V22.472H30.3705ZM29.3705 4.128H26.2025V6.128H29.3705V4.128ZM27.2025 5.128V2.6H25.2025V5.128H27.2025ZM26.2025 3.6H42.3305V1.6H26.2025V3.6ZM43.3305 2.6V0.679998H41.3305V2.6H43.3305ZM42.3305 1.68H44.8585V-0.320002H42.3305V1.68ZM43.8585 0.679998V10.632H45.8585V0.679998H43.8585ZM44.8585 9.632H42.3625V11.632H44.8585V9.632ZM43.3625 10.632V7.496H41.3625V10.632H43.3625ZM43.3625 7.496C43.3625 6.88013 43.0963 6.32935 42.7409 5.86455L41.1521 7.07945C41.3514 7.33998 41.3625 7.47187 41.3625 7.496H43.3625ZM42.7785 5.9173C42.4341 5.40067 41.9805 4.98063 41.437 4.65451L40.408 6.36949C40.7178 6.55537 40.9469 6.77533 41.1145 7.0267L42.7785 5.9173ZM41.4675 4.67356C40.885 4.29492 40.2381 4.096 39.5465 4.096V6.096C39.8363 6.096 40.1067 6.17441 40.3775 6.35044L41.4675 4.67356ZM39.5465 4.096H34.0425V6.096H39.5465V4.096ZM33.0425 5.096V12.584H35.0425V5.096H33.0425ZM34.0425 13.584H36.4425V11.584H34.0425V13.584ZM36.4425 13.584C36.8735 13.584 37.2952 13.4734 37.6692 13.224L36.5598 11.5599C36.5498 11.5666 36.5235 11.584 36.4425 11.584V13.584ZM37.6692 13.224C38.0028 13.0017 38.2746 12.7001 38.4443 12.3181L36.6167 11.5059C36.6158 11.5079 36.6102 11.5263 36.5598 11.5599L37.6692 13.224ZM38.4047 12.3976C38.5818 12.0787 38.6905 11.7211 38.6905 11.336H36.6905C36.6905 11.3382 36.6904 11.3442 36.687 11.3564C36.6834 11.3691 36.6753 11.3923 36.6563 11.4264L38.4047 12.3976ZM38.6905 11.336V9.928H36.6905V11.336H38.6905ZM37.6905 10.928H39.5465V8.928H37.6905V10.928ZM38.5465 9.928V17.672H40.5465V9.928H38.5465ZM39.5465 16.672H37.6905V18.672H39.5465V16.672ZM38.6905 17.672V16.264H36.6905V17.672H38.6905ZM38.6905 16.264C38.6905 15.8789 38.5818 15.5213 38.4047 15.2024L36.6563 16.1736C36.6753 16.2077 36.6834 16.2309 36.687 16.2436C36.6904 16.2558 36.6905 16.2618 36.6905 16.264H38.6905ZM38.4443 15.2819C38.2746 14.8999 38.0028 14.5983 37.6692 14.376L36.5598 16.04C36.6102 16.0737 36.6158 16.0921 36.6167 16.0941L38.4443 15.2819ZM37.6692 14.3759C37.2952 14.1266 36.8735 14.016 36.4425 14.016V16.016C36.5235 16.016 36.5498 16.0334 36.5598 16.0401L37.6692 14.3759ZM36.4425 14.016H34.0425V16.016H36.4425V14.016ZM33.0425 15.016V22.504H35.0425V15.016H33.0425ZM34.0425 23.504H40.1865V21.504H34.0425V23.504ZM40.1865 23.504C40.9454 23.504 41.6587 23.3045 42.3064 22.9102L41.2666 21.2018C40.933 21.4048 40.5796 21.504 40.1865 21.504V23.504ZM42.2904 22.9198C42.91 22.5583 43.4294 22.1019 43.8217 21.5415L42.1833 20.3945C41.9782 20.6874 41.687 20.9563 41.2826 21.1922L42.2904 22.9198ZM43.8025 21.568C44.1938 21.0463 44.4825 20.4436 44.4825 19.784H42.4825C42.4825 19.8497 42.4512 20.0364 42.2025 20.368L43.8025 21.568ZM44.4825 19.784V16.648H42.4825V19.784H44.4825ZM43.4825 17.648H46.0425V15.648H43.4825V17.648ZM45.0425 16.648V27.016H47.0425V16.648H45.0425ZM46.0425 26.016H43.5145V28.016H46.0425V26.016ZM44.5145 27.016V25H42.5145V27.016H44.5145ZM65.9538 22.984L65.1855 23.6242L65.2146 23.659L65.2466 23.6911L65.9538 22.984ZM65.5698 22.824L65.4283 21.8341L65.2495 21.8596L65.0909 21.9461L65.5698 22.824ZM64.8658 23.272L65.4026 24.1157L65.4288 24.099L65.4539 24.0807L64.8658 23.272ZM64.0658 23.784L64.6054 24.6259L64.6065 24.6252L64.0658 23.784ZM61.5378 25.032L61.2074 24.0881L61.2074 24.0881L61.5378 25.032ZM52.9938 24.008L52.4678 24.8585L52.4743 24.8625L52.4809 24.8665L52.9938 24.008ZM49.1218 19.848L48.2382 20.3164L48.2426 20.3246L49.1218 19.848ZM49.1218 7.752L48.2426 7.27535L48.2382 7.28362L49.1218 7.752ZM53.0578 3.624L53.5658 4.4854L53.5739 4.48052L53.0578 3.624ZM61.8898 2.6L61.6024 3.55785L61.6098 3.56L61.8898 2.6ZM64.9618 3.944L64.4579 4.80778L65.9618 5.68504V3.944H64.9618ZM64.9618 1.224V0.223999H63.9618V1.224H64.9618ZM67.4898 1.224H68.4898V0.223999H67.4898V1.224ZM67.4898 10.664V11.664H68.4898V10.664H67.4898ZM65.0258 10.664H64.0258V11.664H65.0258V10.664ZM65.0258 10.024H66.0258V9.98459L66.0226 9.9453L65.0258 10.024ZM61.7618 5.576L62.2644 4.71149L62.2644 4.71149L61.7618 5.576ZM55.6818 5.832L55.0817 5.03195L55.0729 5.03869L55.6818 5.832ZM53.5378 18.76L52.5996 19.1064L52.6014 19.1111L53.5378 18.76ZM55.6818 21.896L55.0615 22.6804L55.0715 22.6883L55.0818 22.696L55.6818 21.896ZM61.4738 22.44L61.0768 21.5221L61.0768 21.5221L61.4738 22.44ZM63.3618 20.968L62.5586 20.3721L62.5553 20.3766L63.3618 20.968ZM64.1938 18.632L65.1912 18.7032L65.1938 18.6677V18.632H64.1938ZM64.1938 15.304H65.1938V14.304H64.1938V15.304ZM59.2018 15.304H58.2018V16.304H59.2018V15.304ZM59.2018 13.096V12.096H58.2018V13.096H59.2018ZM71.6178 13.096H72.6178V12.096H71.6178V13.096ZM71.6178 15.528V16.528H72.6178V15.528H71.6178ZM68.8978 15.528V14.528H67.8978V15.528H68.8978ZM68.8978 25.704V26.704H69.8978V25.704H68.8978ZM66.1458 25.704H65.1458V26.704H66.1458V25.704ZM67.1458 23.528C67.1458 23.1101 67.0274 22.6434 66.6609 22.2769L65.2466 23.6911C65.1985 23.643 65.1693 23.59 65.1548 23.5488C65.1418 23.512 65.1458 23.4999 65.1458 23.528H67.1458ZM66.722 22.3438C66.421 21.9827 65.9619 21.7578 65.4283 21.8341L65.7112 23.8139C65.6238 23.8264 65.5097 23.8197 65.3931 23.7711C65.2812 23.7244 65.2147 23.6592 65.1855 23.6242L66.722 22.3438ZM65.0909 21.9461C64.8153 22.0964 64.5442 22.2693 64.2776 22.4633L65.4539 24.0807C65.6566 23.9333 65.8549 23.8076 66.0486 23.7019L65.0909 21.9461ZM64.3289 22.4283C64.0926 22.5787 63.8246 22.7502 63.525 22.9428L64.6065 24.6252C64.9042 24.4338 65.1696 24.264 65.4026 24.1157L64.3289 22.4283ZM63.5261 22.9421C62.7536 23.4373 61.9808 23.8175 61.2074 24.0881L61.8681 25.9759C62.8014 25.6492 63.7139 25.1974 64.6054 24.6259L63.5261 22.9421ZM61.2074 24.0881C60.4848 24.341 59.5986 24.48 58.5298 24.48V26.48C59.7649 26.48 60.884 26.3203 61.8681 25.9759L61.2074 24.0881ZM58.5298 24.48C56.6492 24.48 54.9833 24.0317 53.5066 23.1495L52.4809 24.8665C54.2895 25.947 56.3143 26.48 58.5298 26.48V24.48ZM53.5197 23.1575C52.0552 22.2518 50.8826 20.9978 50.0009 19.3714L48.2426 20.3246C49.2809 22.2396 50.6897 23.7589 52.4678 24.8585L53.5197 23.1575ZM50.0053 19.3796C49.1525 17.7709 48.7138 15.9193 48.7138 13.8H46.7138C46.7138 16.2034 47.2137 18.3838 48.2382 20.3164L50.0053 19.3796ZM48.7138 13.8C48.7138 11.6807 49.1525 9.82911 50.0053 8.22038L48.2382 7.28362C47.2137 9.21622 46.7138 11.3966 46.7138 13.8H48.7138ZM50.0009 8.22862C50.8782 6.61039 52.0649 5.37048 53.5657 4.48536L52.5498 2.76263C50.7226 3.84019 49.2853 5.35227 48.2426 7.27537L50.0009 8.22862ZM53.5739 4.48052C55.0718 3.57789 56.758 3.12 58.6578 3.12V1.12C56.4189 1.12 54.3717 1.66477 52.5416 2.76748L53.5739 4.48052ZM58.6578 3.12C59.6461 3.12 60.6267 3.26513 61.6024 3.55782L62.1771 1.64217C61.0194 1.29487 59.8454 1.12 58.6578 1.12V3.12ZM61.6098 3.56C62.5474 3.83347 63.4966 4.24702 64.4579 4.80778L65.4656 3.08022C64.3789 2.44631 63.2801 1.96386 62.1698 1.64L61.6098 3.56ZM65.9618 3.944V1.224H63.9618V3.944H65.9618ZM64.9618 2.224H67.4898V0.223999H64.9618V2.224ZM66.4898 1.224V10.664H68.4898V1.224H66.4898ZM67.4898 9.664H65.0258V11.664H67.4898V9.664ZM66.0258 10.664V10.024H64.0258V10.664H66.0258ZM66.0226 9.9453C65.9408 8.90883 65.5205 7.92398 64.8388 6.9988L63.2287 8.1852C63.7416 8.88135 63.9827 9.51784 64.0289 10.1027L66.0226 9.9453ZM64.8388 6.9988C64.156 6.07208 63.2935 5.30985 62.2644 4.71149L61.2591 6.44051C62.0646 6.90882 62.7169 7.49059 63.2287 8.1852L64.8388 6.9988ZM62.2644 4.71149C61.2072 4.09686 60.0859 3.776 58.9138 3.776V5.776C59.7043 5.776 60.4816 5.98847 61.2591 6.44051L62.2644 4.71149ZM58.9138 3.776C57.4898 3.776 56.2001 4.1932 55.0818 5.032L56.2818 6.632C57.0407 6.0628 57.9057 5.776 58.9138 5.776V3.776ZM55.0729 5.03869C53.973 5.88283 53.1621 7.08977 52.6014 8.58488L54.4741 9.28712C54.9374 8.05156 55.5558 7.18917 56.2906 6.62531L55.0729 5.03869ZM52.6014 8.58488C52.0372 10.0896 51.7698 11.8356 51.7698 13.8H53.7698C53.7698 12.0098 54.0143 10.5131 54.4741 9.28712L52.6014 8.58488ZM51.7698 13.8C51.7698 15.8047 52.0365 17.5812 52.5997 19.1064L54.4758 18.4136C54.015 17.1654 53.7698 15.6353 53.7698 13.8H51.7698ZM52.6014 19.1111C53.1617 20.6052 53.97 21.8173 55.0615 22.6804L56.302 21.1116C55.5589 20.524 54.9378 19.6455 54.4741 18.4089L52.6014 19.1111ZM55.0818 22.696C56.1969 23.5323 57.475 23.952 58.8818 23.952V21.952C57.8992 21.952 57.044 21.6677 56.2818 21.096L55.0818 22.696ZM58.8818 23.952C59.9443 23.952 60.945 23.7582 61.8707 23.3579L61.0768 21.5221C60.4239 21.8045 59.6965 21.952 58.8818 21.952V23.952ZM61.8707 23.3579C62.809 22.9521 63.585 22.3545 64.1682 21.5594L62.5553 20.3766C62.1998 20.8615 61.7172 21.2452 61.0768 21.5221L61.8707 23.3579ZM64.1648 21.5638C64.7791 20.7359 65.1149 19.7711 65.1912 18.7032L63.1963 18.5608C63.1446 19.2849 62.9257 19.8774 62.5587 20.3722L64.1648 21.5638ZM65.1938 18.632V15.304H63.1938V18.632H65.1938ZM64.1938 14.304H59.2018V16.304H64.1938V14.304ZM60.2018 15.304V13.096H58.2018V15.304H60.2018ZM59.2018 14.096H71.6178V12.096H59.2018V14.096ZM70.6178 13.096V15.528H72.6178V13.096H70.6178ZM71.6178 14.528H68.8978V16.528H71.6178V14.528ZM67.8978 15.528V25.704H69.8978V15.528H67.8978ZM68.8978 24.704H66.1458V26.704H68.8978V24.704ZM67.1458 25.704V23.528H65.1458V25.704H67.1458ZM72.2025 22.472V21.472H71.2025V22.472H72.2025ZM75.3705 22.472V23.472H76.3705V22.472H75.3705ZM75.3705 5.128H76.3705V4.128H75.3705V5.128ZM72.2025 5.128H71.2025V6.128H72.2025V5.128ZM72.2025 2.6V1.6H71.2025V2.6H72.2025ZM83.3065 2.6H84.3065V1.6H83.3065V2.6ZM83.3065 5.128V6.128H84.3065V5.128H83.3065ZM80.1385 5.128V4.128H79.1385V5.128H80.1385ZM80.1385 22.472H79.1385V23.472H80.1385V22.472ZM83.3065 22.472H84.3065V21.472H83.3065V22.472ZM83.3065 25V26H84.3065V25H83.3065ZM72.2025 25H71.2025V26H72.2025V25ZM72.2025 23.472H75.3705V21.472H72.2025V23.472ZM76.3705 22.472V5.128H74.3705V22.472H76.3705ZM75.3705 4.128H72.2025V6.128H75.3705V4.128ZM73.2025 5.128V2.6H71.2025V5.128H73.2025ZM72.2025 3.6H83.3065V1.6H72.2025V3.6ZM82.3065 2.6V5.128H84.3065V2.6H82.3065ZM83.3065 4.128H80.1385V6.128H83.3065V4.128ZM79.1385 5.128V22.472H81.1385V5.128H79.1385ZM80.1385 23.472H83.3065V21.472H80.1385V23.472ZM82.3065 22.472V25H84.3065V22.472H82.3065ZM83.3065 24H72.2025V26H83.3065V24ZM73.2025 25V22.472H71.2025V25H73.2025ZM92.5775 22.472V21.472H91.5775V22.472H92.5775ZM95.7455 22.472V23.472H96.7455V22.472H95.7455ZM95.7455 5.128H96.7455V4.128H95.7455V5.128ZM92.5775 5.128H91.5775V6.128H92.5775V5.128ZM92.5775 2.6V1.6H91.5775V2.6H92.5775ZM110.53 4.136L109.958 4.9569L109.965 4.96162L109.972 4.96622L110.53 4.136ZM111.554 11.624L110.804 10.9618L110.803 10.963L111.554 11.624ZM108.162 13.576L107.896 12.6119L107.162 12.8141V13.576H108.162ZM108.162 13.8H107.162V14.6237L107.97 14.7815L108.162 13.8ZM112.194 15.72L111.486 16.4272L111.495 16.4352L112.194 15.72ZM111.394 23.464L110.822 22.6431L110.817 22.647L111.394 23.464ZM92.5775 25H91.5775V26H92.5775V25ZM107.522 21.544L106.826 20.8258L106.826 20.8258L107.522 21.544ZM107.49 15.944L106.793 16.6619L106.799 16.6674L106.805 16.6728L107.49 15.944ZM100.514 14.92V13.92H99.5135V14.92H100.514ZM100.514 22.536H99.5135V23.536H100.514V22.536ZM106.818 11.688L107.513 12.4062L107.514 12.4059L106.818 11.688ZM106.818 6.056L106.122 6.77424L106.127 6.77959L106.133 6.78485L106.818 6.056ZM100.514 5.064V4.064H99.5135V5.064H100.514ZM100.514 12.68H99.5135V13.68H100.514V12.68ZM92.5775 23.472H95.7455V21.472H92.5775V23.472ZM96.7455 22.472V5.128H94.7455V22.472H96.7455ZM95.7455 4.128H92.5775V6.128H95.7455V4.128ZM93.5775 5.128V2.6H91.5775V5.128H93.5775ZM92.5775 3.6H104.418V1.6H92.5775V3.6ZM104.418 3.6C106.904 3.6 108.714 4.09128 109.958 4.9569L111.101 3.31509C109.401 2.13272 107.136 1.6 104.418 1.6V3.6ZM109.972 4.96622C111.186 5.78134 111.77 6.87659 111.77 8.36H113.77C113.77 6.21674 112.86 4.49599 111.087 3.30578L109.972 4.96622ZM111.77 8.36C111.77 9.38229 111.448 10.2328 110.804 10.9618L112.303 12.2862C113.28 11.1805 113.77 9.85504 113.77 8.36H111.77ZM110.803 10.963C110.174 11.6772 109.232 12.2439 107.896 12.6119L108.427 14.5401C110.035 14.0974 111.354 13.3628 112.304 12.285L110.803 10.963ZM107.162 13.576V13.8H109.162V13.576H107.162ZM107.97 14.7815C109.589 15.0975 110.729 15.6699 111.486 16.4271L112.901 15.0129C111.78 13.8927 110.232 13.1852 108.353 12.8185L107.97 14.7815ZM111.495 16.4352C112.223 17.1466 112.602 18.0534 112.602 19.24H114.602C114.602 17.568 114.042 16.1281 112.892 15.0048L111.495 16.4352ZM112.602 19.24C112.602 20.7044 112.026 21.8059 110.822 22.6431L111.965 24.2849C113.705 23.0741 114.602 21.3596 114.602 19.24H112.602ZM110.817 22.647C109.596 23.509 107.81 24 105.346 24V26C108.044 26 110.29 25.467 111.97 24.281L110.817 22.647ZM105.346 24H92.5775V26H105.346V24ZM93.5775 25V22.472H91.5775V25H93.5775ZM104.642 23.536C106.057 23.536 107.297 23.1539 108.217 22.2622L106.826 20.8258C106.381 21.2568 105.7 21.536 104.642 21.536V23.536ZM108.217 22.2622C109.142 21.3668 109.546 20.1517 109.546 18.76H107.546C107.546 19.7576 107.267 20.3986 106.826 20.8258L108.217 22.2622ZM109.546 18.76C109.546 17.344 109.129 16.1119 108.174 15.2152L106.805 16.6728C107.258 17.0987 107.546 17.744 107.546 18.76H109.546ZM108.186 15.2261C107.256 14.3246 106.036 13.92 104.642 13.92V15.92C105.636 15.92 106.315 16.1981 106.793 16.6619L108.186 15.2261ZM104.642 13.92H100.514V15.92H104.642V13.92ZM99.5135 14.92V22.536H101.514V14.92H99.5135ZM100.514 23.536H104.642V21.536H100.514V23.536ZM103.906 13.68C105.337 13.68 106.59 13.3008 107.513 12.4062L106.122 10.9698C105.68 11.3979 104.991 11.68 103.906 11.68V13.68ZM107.514 12.4059C108.456 11.4917 108.874 10.2574 108.874 8.84H106.874C106.874 9.85455 106.587 10.519 106.121 10.9701L107.514 12.4059ZM108.874 8.84C108.874 7.43927 108.453 6.2206 107.502 5.32715L106.133 6.78485C106.59 7.21406 106.874 7.8514 106.874 8.84H108.874ZM107.513 5.33776C106.59 4.44319 105.337 4.064 103.906 4.064V6.064C104.991 6.064 105.68 6.34614 106.122 6.77424L107.513 5.33776ZM103.906 4.064H100.514V6.064H103.906V4.064ZM99.5135 5.064V12.68H101.514V5.064H99.5135ZM100.514 13.68H103.906V11.68H100.514V13.68ZM121.159 23.976L120.666 24.8462L120.671 24.8487L121.159 23.976ZM116.999 19.816L116.129 20.3087L116.129 20.3087L116.999 19.816ZM116.999 7.784L116.129 7.29125L116.129 7.29125L116.999 7.784ZM121.159 3.624L120.671 2.7513L120.666 2.75383L121.159 3.624ZM133.191 3.624L132.698 4.49418L132.703 4.49668L133.191 3.624ZM137.383 7.784L138.253 7.29125L138.253 7.29125L137.383 7.784ZM137.383 19.816L138.253 20.3087L138.253 20.3087L137.383 19.816ZM133.191 23.976L132.703 23.1033L132.698 23.1058L133.191 23.976ZM130.695 21.736L131.27 22.5544L131.27 22.5544L130.695 21.736ZM132.999 18.664L133.929 19.0329L133.93 19.0279L132.999 18.664ZM132.999 8.968L132.068 9.33185L132.07 9.33684L132.999 8.968ZM130.695 5.864L131.27 5.04559L131.27 5.04559L130.695 5.864ZM123.687 5.864L123.112 5.04559L123.112 5.04559L123.687 5.864ZM121.383 8.968L122.313 9.33685L122.314 9.33185L121.383 8.968ZM121.383 18.664L120.452 19.0279L120.454 19.0328L121.383 18.664ZM123.687 21.736L123.112 22.5544L123.112 22.5544L123.687 21.736ZM127.207 24.48C125.122 24.48 123.277 24.015 121.647 23.1033L120.671 24.8487C122.625 25.9423 124.812 26.48 127.207 26.48V24.48ZM121.652 23.1058C120.039 22.1924 118.783 20.9362 117.869 19.3233L116.129 20.3087C117.221 22.2371 118.738 23.7542 120.666 24.8462L121.652 23.1058ZM117.869 19.3233C116.96 17.7177 116.495 15.8851 116.495 13.8H114.495C114.495 16.1949 115.033 18.373 116.129 20.3087L117.869 19.3233ZM116.495 13.8C116.495 11.7149 116.96 9.88233 117.869 8.27675L116.129 7.29125C115.033 9.22701 114.495 11.4051 114.495 13.8H116.495ZM117.869 8.27675C118.783 6.66376 120.039 5.40755 121.652 4.49417L120.666 2.75383C118.738 3.84578 117.221 5.3629 116.129 7.29125L117.869 8.27675ZM121.647 4.49668C123.277 3.58495 125.122 3.12 127.207 3.12V1.12C124.812 1.12 122.625 1.65771 120.671 2.75132L121.647 4.49668ZM127.207 3.12C129.269 3.12 131.091 3.58417 132.698 4.49417L133.684 2.75383C131.749 1.65849 129.582 1.12 127.207 1.12V3.12ZM132.703 4.49668C134.337 5.41088 135.601 6.6668 136.513 8.27675L138.253 7.29125C137.159 5.35986 135.629 3.84245 133.679 2.75132L132.703 4.49668ZM136.513 8.27675C137.422 9.88233 137.887 11.7149 137.887 13.8H139.887C139.887 11.4051 139.349 9.22701 138.253 7.29125L136.513 8.27675ZM137.887 13.8C137.887 15.8851 137.422 17.7177 136.513 19.3233L138.253 20.3087C139.349 18.373 139.887 16.1949 139.887 13.8H137.887ZM136.513 19.3233C135.601 20.9332 134.337 22.1891 132.703 23.1033L133.679 24.8487C135.629 23.7575 137.159 22.2401 138.253 20.3087L136.513 19.3233ZM132.698 23.1058C131.091 24.0158 129.269 24.48 127.207 24.48V26.48C129.582 26.48 131.749 25.9415 133.684 24.8462L132.698 23.1058ZM127.207 23.792C128.718 23.792 130.085 23.3861 131.27 22.5544L130.12 20.9176C129.3 21.4939 128.341 21.792 127.207 21.792V23.792ZM131.27 22.5544C132.459 21.7194 133.336 20.5248 133.928 19.0328L132.07 18.2952C131.595 19.4912 130.936 20.3446 130.12 20.9176L131.27 22.5544ZM133.93 19.0279C134.52 17.5191 134.799 15.7684 134.799 13.8H132.799C132.799 15.5862 132.545 17.0783 132.068 18.3001L133.93 19.0279ZM134.799 13.8C134.799 11.8322 134.52 10.0898 133.928 8.59915L132.07 9.33684C132.545 10.5342 132.799 12.0131 132.799 13.8H134.799ZM133.93 8.60415C133.34 7.09205 132.463 5.88332 131.27 5.04559L130.12 6.68241C130.933 7.25268 131.592 8.11328 132.068 9.33185L133.93 8.60415ZM131.27 5.04559C130.085 4.21387 128.718 3.808 127.207 3.808V5.808C128.341 5.808 129.3 6.10612 130.12 6.68241L131.27 5.04559ZM127.207 3.808C125.678 3.808 124.3 4.21193 123.112 5.04559L124.262 6.68241C125.08 6.10806 126.048 5.808 127.207 5.808V3.808ZM123.112 5.04559C121.919 5.88332 121.042 7.09205 120.452 8.60415L122.314 9.33185C122.79 8.11328 123.449 7.25268 124.262 6.68241L123.112 5.04559ZM120.454 8.59915C119.862 10.0898 119.583 11.8322 119.583 13.8H121.583C121.583 12.0131 121.837 10.5342 122.312 9.33684L120.454 8.59915ZM119.583 13.8C119.583 15.7684 119.862 17.5191 120.452 19.0279L122.314 18.3001C121.837 17.0783 121.583 15.5862 121.583 13.8H119.583ZM120.454 19.0328C121.046 20.5248 121.923 21.7194 123.112 22.5544L124.262 20.9176C123.446 20.3446 122.787 19.4912 122.312 18.2952L120.454 19.0328ZM123.112 22.5544C124.3 23.3881 125.678 23.792 127.207 23.792V21.792C126.048 21.792 125.08 21.4919 124.262 20.9176L123.112 22.5544ZM146.784 23.976L146.291 24.8462L146.296 24.8487L146.784 23.976ZM142.624 19.816L141.754 20.3087L141.754 20.3087L142.624 19.816ZM142.624 7.784L141.754 7.29125L141.754 7.29125L142.624 7.784ZM146.784 3.624L146.296 2.7513L146.291 2.75383L146.784 3.624ZM158.816 3.624L158.323 4.49418L158.328 4.49668L158.816 3.624ZM163.008 7.784L163.878 7.29125L163.878 7.29125L163.008 7.784ZM163.008 19.816L163.878 20.3087L163.878 20.3087L163.008 19.816ZM158.816 23.976L158.328 23.1033L158.323 23.1058L158.816 23.976ZM156.32 21.736L156.895 22.5544L156.895 22.5544L156.32 21.736ZM158.624 18.664L159.554 19.0329L159.555 19.0279L158.624 18.664ZM158.624 8.968L157.693 9.33185L157.695 9.33684L158.624 8.968ZM156.32 5.864L156.895 5.04559L156.895 5.04559L156.32 5.864ZM149.312 5.864L148.737 5.04559L148.737 5.04559L149.312 5.864ZM147.008 8.968L147.938 9.33685L147.939 9.33185L147.008 8.968ZM147.008 18.664L146.077 19.0279L146.079 19.0328L147.008 18.664ZM149.312 21.736L148.737 22.5544L148.737 22.5544L149.312 21.736ZM152.832 24.48C150.747 24.48 148.902 24.015 147.272 23.1033L146.296 24.8487C148.25 25.9423 150.437 26.48 152.832 26.48V24.48ZM147.277 23.1058C145.664 22.1924 144.408 20.9362 143.494 19.3233L141.754 20.3087C142.846 22.2371 144.363 23.7542 146.291 24.8462L147.277 23.1058ZM143.494 19.3233C142.585 17.7177 142.12 15.8851 142.12 13.8H140.12C140.12 16.1949 140.658 18.373 141.754 20.3087L143.494 19.3233ZM142.12 13.8C142.12 11.7149 142.585 9.88233 143.494 8.27675L141.754 7.29125C140.658 9.22701 140.12 11.4051 140.12 13.8H142.12ZM143.494 8.27675C144.408 6.66376 145.664 5.40755 147.277 4.49417L146.291 2.75383C144.363 3.84578 142.846 5.3629 141.754 7.29125L143.494 8.27675ZM147.272 4.49668C148.902 3.58495 150.747 3.12 152.832 3.12V1.12C150.437 1.12 148.25 1.65771 146.296 2.75132L147.272 4.49668ZM152.832 3.12C154.894 3.12 156.716 3.58417 158.323 4.49417L159.309 2.75383C157.374 1.65849 155.207 1.12 152.832 1.12V3.12ZM158.328 4.49668C159.962 5.41088 161.226 6.6668 162.138 8.27675L163.878 7.29125C162.784 5.35986 161.254 3.84245 159.304 2.75132L158.328 4.49668ZM162.138 8.27675C163.047 9.88233 163.512 11.7149 163.512 13.8H165.512C165.512 11.4051 164.974 9.22701 163.878 7.29125L162.138 8.27675ZM163.512 13.8C163.512 15.8851 163.047 17.7177 162.138 19.3233L163.878 20.3087C164.974 18.373 165.512 16.1949 165.512 13.8H163.512ZM162.138 19.3233C161.226 20.9332 159.962 22.1891 158.328 23.1033L159.304 24.8487C161.254 23.7575 162.784 22.2401 163.878 20.3087L162.138 19.3233ZM158.323 23.1058C156.716 24.0158 154.894 24.48 152.832 24.48V26.48C155.207 26.48 157.374 25.9415 159.309 24.8462L158.323 23.1058ZM152.832 23.792C154.343 23.792 155.71 23.3861 156.895 22.5544L155.745 20.9176C154.925 21.4939 153.966 21.792 152.832 21.792V23.792ZM156.895 22.5544C158.084 21.7194 158.961 20.5248 159.553 19.0328L157.695 18.2952C157.22 19.4912 156.561 20.3446 155.745 20.9176L156.895 22.5544ZM159.555 19.0279C160.145 17.5191 160.424 15.7684 160.424 13.8H158.424C158.424 15.5862 158.17 17.0783 157.693 18.3001L159.555 19.0279ZM160.424 13.8C160.424 11.8322 160.145 10.0898 159.553 8.59915L157.695 9.33684C158.17 10.5342 158.424 12.0131 158.424 13.8H160.424ZM159.555 8.60415C158.965 7.09205 158.088 5.88332 156.895 5.04559L155.745 6.68241C156.558 7.25268 157.217 8.11328 157.693 9.33185L159.555 8.60415ZM156.895 5.04559C155.71 4.21387 154.343 3.808 152.832 3.808V5.808C153.966 5.808 154.925 6.10612 155.745 6.68241L156.895 5.04559ZM152.832 3.808C151.303 3.808 149.925 4.21193 148.737 5.04559L149.887 6.68241C150.705 6.10806 151.673 5.808 152.832 5.808V3.808ZM148.737 5.04559C147.544 5.88332 146.667 7.09205 146.077 8.60415L147.939 9.33185C148.415 8.11328 149.074 7.25268 149.887 6.68241L148.737 5.04559ZM146.079 8.59915C145.487 10.0898 145.208 11.8322 145.208 13.8H147.208C147.208 12.0131 147.462 10.5342 147.937 9.33684L146.079 8.59915ZM145.208 13.8C145.208 15.7684 145.487 17.5191 146.077 19.0279L147.939 18.3001C147.462 17.0783 147.208 15.5862 147.208 13.8H145.208ZM146.079 19.0328C146.671 20.5248 147.548 21.7194 148.737 22.5544L149.887 20.9176C149.071 20.3446 148.412 19.4912 147.937 18.2952L146.079 19.0328ZM148.737 22.5544C149.925 23.3881 151.303 23.792 152.832 23.792V21.792C151.673 21.792 150.705 21.4919 149.887 20.9176L148.737 22.5544ZM166.265 22.472V21.472H165.265V22.472H166.265ZM169.433 22.472V23.472H170.433V22.472H169.433ZM169.433 5.128H170.433V4.128H169.433V5.128ZM166.265 5.128H165.265V6.128H166.265V5.128ZM166.265 2.6V1.6H165.265V2.6H166.265ZM177.337 2.6H178.337V1.6H177.337V2.6ZM177.337 5.128V6.128H178.337V5.128H177.337ZM174.201 5.128V4.128H173.201V5.128H174.201ZM174.201 12.648H173.201V13.648H174.201V12.648ZM176.857 12.648V13.648H177.325L177.625 13.2885L176.857 12.648ZM183.129 5.128L183.897 5.7685L185.265 4.128H183.129V5.128ZM179.865 5.128H178.865V6.128H179.865V5.128ZM179.865 2.6V1.6H178.865V2.6H179.865ZM189.017 2.6H190.017V1.6H189.017V2.6ZM189.017 5.128V6.128H190.017V5.128H189.017ZM186.233 5.128V4.128H185.761L185.461 4.49255L186.233 5.128ZM180.729 11.816L179.957 11.1806L179.469 11.7731L179.915 12.3975L180.729 11.816ZM188.345 22.472L187.531 23.0535L187.831 23.472H188.345V22.472ZM190.681 22.472H191.681V21.472H190.681V22.472ZM190.681 25V26H191.681V25H190.681ZM179.353 25H178.353V26H179.353V25ZM179.353 22.472V21.472H178.353V22.472H179.353ZM182.489 22.472V23.472H184.474L183.293 21.8769L182.489 22.472ZM176.921 14.952L177.725 14.3569L177.425 13.952H176.921V14.952ZM174.201 14.952V13.952H173.201V14.952H174.201ZM174.201 22.472H173.201V23.472H174.201V22.472ZM177.241 22.472H178.241V21.472H177.241V22.472ZM177.241 25V26H178.241V25H177.241ZM166.265 25H165.265V26H166.265V25ZM166.265 23.472H169.433V21.472H166.265V23.472ZM170.433 22.472V5.128H168.433V22.472H170.433ZM169.433 4.128H166.265V6.128H169.433V4.128ZM167.265 5.128V2.6H165.265V5.128H167.265ZM166.265 3.6H177.337V1.6H166.265V3.6ZM176.337 2.6V5.128H178.337V2.6H176.337ZM177.337 4.128H174.201V6.128H177.337V4.128ZM173.201 5.128V12.648H175.201V5.128H173.201ZM174.201 13.648H176.857V11.648H174.201V13.648ZM177.625 13.2885L183.897 5.7685L182.361 4.48749L176.089 12.0075L177.625 13.2885ZM183.129 4.128H179.865V6.128H183.129V4.128ZM180.865 5.128V2.6H178.865V5.128H180.865ZM179.865 3.6H189.017V1.6H179.865V3.6ZM188.017 2.6V5.128H190.017V2.6H188.017ZM189.017 4.128H186.233V6.128H189.017V4.128ZM185.461 4.49255L179.957 11.1806L181.501 12.4514L187.005 5.76345L185.461 4.49255ZM179.915 12.3975L187.531 23.0535L189.159 21.8905L181.543 11.2345L179.915 12.3975ZM188.345 23.472H190.681V21.472H188.345V23.472ZM189.681 22.472V25H191.681V22.472H189.681ZM190.681 24H179.353V26H190.681V24ZM180.353 25V22.472H178.353V25H180.353ZM179.353 23.472H182.489V21.472H179.353V23.472ZM183.293 21.8769L177.725 14.3569L176.117 15.5471L181.685 23.0671L183.293 21.8769ZM176.921 13.952H174.201V15.952H176.921V13.952ZM173.201 14.952V22.472H175.201V14.952H173.201ZM174.201 23.472H177.241V21.472H174.201V23.472ZM176.241 22.472V25H178.241V22.472H176.241ZM177.241 24H166.265V26H177.241V24ZM167.265 25V22.472H165.265V25H167.265ZM190.843 16.072V15.072H189.843V16.072H190.843ZM193.403 16.072L194.402 16.0363L194.367 15.072H193.403V16.072ZM193.435 16.968L192.435 17.0037L192.435 17.0105L193.435 16.968ZM194.843 19.88L194.119 20.5705L194.127 20.5787L194.843 19.88ZM204.443 22.664L204.095 21.7262L204.084 21.7307L204.443 22.664ZM205.787 21.768L205.022 21.1239L205.018 21.1278L205.787 21.768ZM205.595 18.856L204.905 19.5801L204.913 19.5881L204.922 19.5959L205.595 18.856ZM203.803 17.768L203.422 18.6927L203.431 18.6965L203.803 17.768ZM200.763 16.68L201.074 15.7298L201.017 15.7111L200.959 15.6994L200.763 16.68ZM200.411 16.584L200.039 17.5125L200.066 17.5234L200.094 17.5327L200.411 16.584ZM200.091 16.488L199.383 17.1951L199.597 17.4092L199.894 17.4686L200.091 16.488ZM199.963 16.424L200.67 15.7169L200.504 15.5514L200.282 15.4765L199.963 16.424ZM195.611 14.696L196.045 13.7952L196.045 13.7952L195.611 14.696ZM192.507 12.296L191.732 12.9284L191.739 12.937L191.746 12.9455L192.507 12.296ZM192.219 5.032L193.036 5.60795L193.036 5.60795L192.219 5.032ZM194.971 2.888L195.356 3.81058L195.363 3.80761L195.37 3.80454L194.971 2.888ZM201.499 2.376L201.287 3.35343L201.292 3.35455L201.499 2.376ZM203.931 3.048L204.302 2.11952L204.278 2.11007L204.254 2.10183L203.931 3.048ZM205.147 3.592L205.594 2.69757L205.594 2.69757L205.147 3.592ZM206.203 4.232L205.611 5.0384L207.203 6.2054V4.232H206.203ZM206.203 1.384V0.383999H205.203V1.384H206.203ZM208.731 1.384H209.731V0.383999H208.731V1.384ZM208.731 10.824V11.824H209.731V10.824H208.731ZM206.235 10.824H205.235V11.824H206.235V10.824ZM206.235 10.024H207.235V9.99624L207.233 9.96853L206.235 10.024ZM204.891 7.656L204.192 8.37206L204.202 8.381L204.891 7.656ZM201.659 5.608L201.261 6.52556L201.27 6.52952L201.279 6.53331L201.659 5.608ZM195.419 5.48L196.019 6.28001L196.023 6.27669L195.419 5.48ZM195.227 8.968L194.519 9.67511L194.535 9.69117L194.552 9.70648L195.227 8.968ZM197.083 10.152L196.667 11.0615L196.678 11.0664L196.689 11.0711L197.083 10.152ZM200.187 11.272L199.879 12.2237L199.934 12.2413L199.99 12.2526L200.187 11.272ZM200.475 11.368L200.027 12.2624L200.147 12.3223L200.278 12.3486L200.475 11.368ZM200.827 11.432L201.198 10.5035L201.098 10.4634L200.991 10.4456L200.827 11.432ZM201.307 11.624L200.935 12.5525L200.966 12.5647L200.997 12.5749L201.307 11.624ZM205.659 13.32L205.218 14.2178L205.225 14.221L205.659 13.32ZM208.731 22.568L207.916 21.9885L207.911 21.9946L207.907 22.0007L208.731 22.568ZM205.947 24.744L205.567 23.819L205.947 24.744ZM198.683 25.192L198.879 24.2114L198.879 24.2114L198.683 25.192ZM195.899 24.424L195.52 25.3495L195.541 25.3581L195.562 25.3657L195.899 24.424ZM194.555 23.816L194.107 24.7104L194.107 24.7104L194.555 23.816ZM193.371 23.112L193.947 22.295L192.371 21.1821V23.112H193.371ZM193.371 25.96V26.96H194.371V25.96H193.371ZM190.843 25.96H189.843V26.96H190.843V25.96ZM190.843 17.072H193.403V15.072H190.843V17.072ZM192.403 16.1077L192.435 17.0037L194.434 16.9323L194.402 16.0363L192.403 16.1077ZM192.435 17.0105C192.491 18.3194 193.106 19.509 194.119 20.5705L195.566 19.1895C194.787 18.3736 194.463 17.6219 194.434 16.9255L192.435 17.0105ZM194.127 20.5787C195.132 21.6077 196.393 22.4245 197.883 23.0435L198.65 21.1965C197.367 20.6635 196.345 19.987 195.558 19.1813L194.127 20.5787ZM197.883 23.0435C199.385 23.6674 200.923 23.984 202.491 23.984V21.984C201.199 21.984 199.921 21.7246 198.65 21.1965L197.883 23.0435ZM202.491 23.984C203.33 23.984 204.107 23.8644 204.801 23.5973L204.084 21.7307C203.669 21.8902 203.145 21.984 202.491 21.984V23.984ZM204.79 23.6017C205.492 23.3415 206.1 22.954 206.555 22.4082L205.018 21.1278C204.833 21.35 204.545 21.5598 204.095 21.7263L204.79 23.6017ZM206.551 22.4121C207.046 21.8252 207.299 21.1274 207.299 20.36H205.299C205.299 20.6593 205.21 20.9001 205.022 21.1239L206.551 22.4121ZM207.299 20.36C207.299 19.4719 206.921 18.7109 206.267 18.1161L204.922 19.5959C205.206 19.8545 205.299 20.096 205.299 20.36H207.299ZM206.284 18.1319C205.721 17.5955 205.005 17.172 204.174 16.8395L203.431 18.6965C204.093 18.9614 204.572 19.2632 204.905 19.5801L206.284 18.1319ZM204.183 16.8433C203.424 16.5309 202.384 16.1594 201.074 15.7298L200.451 17.6302C201.743 18.054 202.73 18.4078 203.422 18.6927L204.183 16.8433ZM200.959 15.6994C200.901 15.6879 200.824 15.6678 200.727 15.6353L200.094 17.5327C200.253 17.5855 200.411 17.6295 200.566 17.6606L200.959 15.6994ZM200.782 15.6555C200.622 15.5914 200.456 15.5414 200.287 15.5074L199.894 17.4686C199.938 17.4773 199.986 17.4912 200.039 17.5125L200.782 15.6555ZM200.798 15.7809C200.667 15.6506 200.407 15.456 200.027 15.456V17.456C199.689 17.456 199.471 17.2828 199.383 17.1951L200.798 15.7809ZM200.027 15.456C200.364 15.456 200.582 15.6292 200.67 15.7169L199.255 17.1311C199.386 17.2614 199.646 17.456 200.027 17.456V15.456ZM200.282 15.4765C198.602 14.9094 197.192 14.3483 196.045 13.7952L195.176 15.5968C196.419 16.1957 197.91 16.7866 199.643 17.3715L200.282 15.4765ZM196.045 13.7952C194.977 13.2804 194.053 12.5667 193.267 11.6465L191.746 12.9455C192.709 14.0733 193.855 14.9596 195.176 15.5968L196.045 13.7952ZM193.281 11.6636C192.596 10.8238 192.227 9.75623 192.227 8.392H190.227C190.227 10.1424 190.711 11.6776 191.732 12.9284L193.281 11.6636ZM192.227 8.392C192.227 7.26831 192.509 6.35611 193.036 5.60795L191.401 4.45605C190.605 5.58522 190.227 6.91302 190.227 8.392H192.227ZM193.036 5.60795C193.577 4.8394 194.337 4.2367 195.356 3.81058L194.585 1.96542C193.257 2.52063 192.182 3.34726 191.401 4.45605L193.036 5.60795ZM195.37 3.80454C196.397 3.35672 197.601 3.12 199.003 3.12V1.12C197.375 1.12 195.891 1.39528 194.571 1.97146L195.37 3.80454ZM199.003 3.12C199.812 3.12 200.573 3.19894 201.287 3.35341L201.71 1.39859C200.846 1.21172 199.942 1.12 199.003 1.12V3.12ZM201.292 3.35455C202.062 3.51655 202.833 3.72956 203.607 3.99416L204.254 2.10183C203.406 1.81177 202.556 1.57679 201.705 1.39745L201.292 3.35455ZM203.559 3.97647C203.962 4.13756 204.342 4.30765 204.699 4.48643L205.594 2.69757C205.183 2.49235 204.753 2.29977 204.302 2.11952L203.559 3.97647ZM204.699 4.48643C205.037 4.65524 205.34 4.83968 205.611 5.0384L206.794 3.42559C206.425 3.15499 206.024 2.91276 205.594 2.69757L204.699 4.48643ZM207.203 4.232V1.384H205.203V4.232H207.203ZM206.203 2.384H208.731V0.383999H206.203V2.384ZM207.731 1.384V10.824H209.731V1.384H207.731ZM208.731 9.824H206.235V11.824H208.731V9.824ZM207.235 10.824V10.024H205.235V10.824H207.235ZM207.233 9.96853C207.17 8.83976 206.522 7.82678 205.579 6.931L204.202 8.381C204.965 9.10655 205.213 9.67224 205.236 10.0795L207.233 9.96853ZM205.589 6.94C204.628 6.00383 203.437 5.25609 202.038 4.68269L201.279 6.53331C202.483 7.02658 203.446 7.64416 204.192 8.372L205.589 6.94ZM202.056 4.69044C200.667 4.08832 199.273 3.776 197.883 3.776V5.776C198.967 5.776 200.09 6.01835 201.261 6.52556L202.056 4.69044ZM197.883 3.776C196.71 3.776 195.655 4.0455 194.814 4.68331L196.023 6.27669C196.419 5.97583 197.007 5.776 197.883 5.776V3.776ZM194.819 4.68C193.961 5.32311 193.523 6.23181 193.523 7.304H195.523C195.523 6.84018 195.681 6.53289 196.018 6.28L194.819 4.68ZM193.523 7.304C193.523 8.22 193.87 9.026 194.519 9.67511L195.934 8.26089C195.644 7.97133 195.523 7.668 195.523 7.304H193.523ZM194.552 9.70648C195.135 10.2388 195.847 10.6867 196.667 11.0615L197.498 9.24252C196.825 8.93464 196.299 8.59318 195.901 8.22951L194.552 9.70648ZM196.689 11.0711C197.477 11.4089 198.545 11.7932 199.879 12.2237L200.494 10.3203C199.183 9.89748 198.182 9.5351 197.476 9.23285L196.689 11.0711ZM199.99 12.2526C200.022 12.2589 200.032 12.2646 200.027 12.2624L200.922 10.4736C200.747 10.3861 200.564 10.3278 200.383 10.2914L199.99 12.2526ZM200.278 12.3486C200.397 12.3724 200.525 12.3956 200.662 12.4184L200.991 10.4456C200.872 10.4257 200.765 10.4063 200.671 10.3874L200.278 12.3486ZM200.455 12.3605L200.935 12.5525L201.678 10.6955L201.198 10.5035L200.455 12.3605ZM200.997 12.5749C202.742 13.1426 204.145 13.6912 205.218 14.2178L206.099 12.4222C204.911 11.8395 203.412 11.2574 201.616 10.673L200.997 12.5749ZM205.225 14.221C206.255 14.717 207.111 15.3778 207.805 16.2036L209.336 14.9164C208.452 13.8648 207.366 13.0324 206.092 12.419L205.225 14.221ZM207.805 16.2036C208.423 16.9385 208.755 17.8641 208.755 19.048H210.755C210.755 17.4586 210.297 16.0588 209.336 14.9164L207.805 16.2036ZM208.755 19.048C208.755 20.2648 208.458 21.2262 207.916 21.9885L209.545 23.1475C210.369 21.9898 210.755 20.6045 210.755 19.048H208.755ZM207.907 22.0007C207.367 22.784 206.602 23.3938 205.567 23.819L206.326 25.669C207.68 25.1129 208.771 24.272 209.554 23.1353L207.907 22.0007ZM205.567 23.819C204.516 24.2505 203.263 24.48 201.787 24.48V26.48C203.467 26.48 204.988 26.2189 206.326 25.669L205.567 23.819ZM201.787 24.48C200.734 24.48 199.766 24.3889 198.879 24.2114L198.486 26.1726C199.519 26.3791 200.62 26.48 201.787 26.48V24.48ZM198.879 24.2114C197.965 24.0287 197.084 23.7855 196.235 23.4823L195.562 25.3657C196.505 25.7025 197.48 25.9713 198.486 26.1726L198.879 24.2114ZM196.277 23.4985C195.83 23.3154 195.405 23.123 195.002 22.9216L194.107 24.7104C194.558 24.9357 195.029 25.1486 195.52 25.3495L196.277 23.4985ZM195.002 22.9216C194.617 22.7291 194.266 22.5199 193.947 22.295L192.794 23.929C193.201 24.2161 193.639 24.4762 194.107 24.7104L195.002 22.9216ZM192.371 23.112V25.96H194.371V23.112H192.371ZM193.371 24.96H190.843V26.96H193.371V24.96ZM191.843 25.96V16.072H189.843V25.96H191.843Z" fill="#C160D0" mask="url(#path-1-outside-1_1_2)"/>
</g>
</svg>
