<svg width="191" height="25" viewBox="0 0 191 25" fill="none" xmlns="http://www.w3.org/2000/svg">
<rect width="191" height="25" fill="#F5F5F5"/>
<g style="mix-blend-mode:plus-darker">
<mask id="path-1-outside-1_0_1" maskUnits="userSpaceOnUse" x="-1" y="-1" width="193" height="27" fill="black">
<rect fill="white" x="-1" y="-1" width="193" height="27"/>
<path d="M0.64 21.472H3.808V4.128H0.64V1.6H12.48C15.0827 1.6 17.12 2.112 18.592 3.136C20.0853 4.13867 20.832 5.54667 20.832 7.36C20.832 8.61867 20.4267 9.70667 19.616 10.624C18.8267 11.52 17.696 12.1707 16.224 12.576V12.8C17.9733 13.1413 19.3173 13.7813 20.256 14.72C21.1947 15.6373 21.664 16.8107 21.664 18.24C21.664 20.032 20.928 21.44 19.456 22.464C18.0053 23.488 15.9893 24 13.408 24H0.64V21.472ZM12.704 21.536C13.9413 21.536 14.9013 21.2053 15.584 20.544C16.2667 19.8827 16.608 18.9547 16.608 17.76C16.608 16.544 16.256 15.6053 15.552 14.944C14.848 14.2613 13.8987 13.92 12.704 13.92H8.576V21.536H12.704ZM11.968 11.68C13.2267 11.68 14.1973 11.3493 14.88 10.688C15.584 10.0053 15.936 9.056 15.936 7.84C15.936 6.64533 15.584 5.71733 14.88 5.056C14.1973 4.39467 13.2267 4.064 11.968 4.064H8.576V11.68H11.968ZM21.0227 21.472H23.8068L30.2388 5.216L29.8868 4.128H26.9427V1.6H36.4468L43.6148 21.472H46.4308V24H34.7508V21.472H38.5268L36.7668 16.64H28.3828L26.4948 21.472H30.7508V24H21.0227V21.472ZM36.0308 14.464L32.8628 5.824H32.6068L29.1828 14.464H36.0308ZM45.6088 21.472H48.7768V4.128H45.6088V1.6H57.4488C60.0514 1.6 62.0888 2.112 63.5608 3.136C65.0541 4.13867 65.8008 5.54667 65.8008 7.36C65.8008 8.61867 65.3954 9.70667 64.5848 10.624C63.7954 11.52 62.6648 12.1707 61.1928 12.576V12.8C62.9421 13.1413 64.2861 13.7813 65.2248 14.72C66.1634 15.6373 66.6328 16.8107 66.6328 18.24C66.6328 20.032 65.8968 21.44 64.4248 22.464C62.9741 23.488 60.9581 24 58.3768 24H45.6088V21.472ZM57.6728 21.536C58.9101 21.536 59.8701 21.2053 60.5528 20.544C61.2354 19.8827 61.5768 18.9547 61.5768 17.76C61.5768 16.544 61.2248 15.6053 60.5208 14.944C59.8168 14.2613 58.8674 13.92 57.6728 13.92H53.5448V21.536H57.6728ZM56.9368 11.68C58.1954 11.68 59.1661 11.3493 59.8488 10.688C60.5528 10.0053 60.9048 9.056 60.9048 7.84C60.9048 6.64533 60.5528 5.71733 59.8488 5.056C59.1661 4.39467 58.1954 4.064 56.9368 4.064H53.5448V11.68H56.9368ZM71.413 21.472H75.573V15.424L68.309 4.128H65.557V1.6H77.461V4.128H73.653L79.189 13.184L84.693 4.128H80.917V1.6H90.485V4.128H87.701L80.469 15.456V21.472H84.629V24H71.413V21.472Z"/>
<path d="M98.1238 15.072H100.684L100.716 15.968C100.758 16.9707 101.228 17.9413 102.124 18.88C103.02 19.7973 104.161 20.544 105.548 21.12C106.934 21.696 108.342 21.984 109.772 21.984C110.518 21.984 111.169 21.8773 111.724 21.664C112.3 21.4507 112.748 21.152 113.068 20.768C113.409 20.3627 113.58 19.8933 113.58 19.36C113.58 18.784 113.345 18.2827 112.876 17.856C112.428 17.4293 111.83 17.0667 111.084 16.768C110.358 16.4693 109.345 16.1067 108.044 15.68C107.937 15.6587 107.82 15.6267 107.692 15.584C107.585 15.5413 107.478 15.5093 107.372 15.488C107.35 15.4667 107.329 15.456 107.308 15.456C107.286 15.456 107.265 15.4453 107.244 15.424C105.537 14.848 104.086 14.272 102.892 13.696C101.697 13.12 100.662 12.32 99.7878 11.296C98.9344 10.2507 98.5078 8.94933 98.5078 7.392C98.5078 6.09067 98.8384 4.97067 99.4998 4.032C100.161 3.09333 101.078 2.37867 102.252 1.888C103.425 1.376 104.769 1.12 106.284 1.12C107.158 1.12 107.99 1.20533 108.78 1.376C109.59 1.54667 110.401 1.77066 111.212 2.048C111.638 2.21867 112.044 2.4 112.428 2.592C112.812 2.784 113.164 2.99733 113.484 3.232V0.383999H116.012V9.824H113.516V9.024C113.473 8.256 113.025 7.46667 112.172 6.656C111.318 5.824 110.241 5.14133 108.94 4.608C107.66 4.05333 106.401 3.776 105.164 3.776C104.14 3.776 103.318 4.01067 102.7 4.48C102.102 4.928 101.804 5.536 101.804 6.304C101.804 6.944 102.038 7.49867 102.508 7.968C102.998 8.416 103.617 8.81067 104.364 9.152C105.11 9.472 106.145 9.84533 107.468 10.272C107.574 10.2933 107.67 10.3253 107.756 10.368C107.862 10.3893 107.98 10.4107 108.108 10.432L108.588 10.624C110.358 11.2 111.809 11.7653 112.94 12.32C114.092 12.8747 115.062 13.6213 115.852 14.56C116.641 15.4987 117.036 16.6613 117.036 18.048C117.036 19.4347 116.694 20.608 116.012 21.568C115.35 22.528 114.422 23.2533 113.228 23.744C112.033 24.2347 110.646 24.48 109.068 24.48C107.958 24.48 106.924 24.384 105.964 24.192C105.004 24 104.076 23.744 103.18 23.424C102.71 23.232 102.262 23.0293 101.836 22.816C101.409 22.6027 101.014 22.368 100.652 22.112V24.96H98.1238V15.072ZM118.64 21.472H121.808V4.128H118.64V1.6H129.872V4.128H126.576V11.616H135.664V4.128H132.368V1.6H143.6V4.128H140.432V21.472H143.6V24H132.368V21.472H135.664V13.984H126.576V21.472H129.872V24H118.64V21.472ZM157.082 24.48C154.842 24.48 152.826 23.9787 151.034 22.976C149.263 21.9733 147.877 20.5867 146.874 18.816C145.871 17.0453 145.37 15.04 145.37 12.8C145.37 10.56 145.871 8.55467 146.874 6.784C147.877 5.01333 149.263 3.62667 151.034 2.624C152.826 1.62133 154.842 1.12 157.082 1.12C159.301 1.12 161.295 1.62133 163.066 2.624C164.858 3.62667 166.255 5.01333 167.258 6.784C168.261 8.55467 168.762 10.56 168.762 12.8C168.762 15.04 168.261 17.0453 167.258 18.816C166.255 20.5867 164.858 21.9733 163.066 22.976C161.295 23.9787 159.301 24.48 157.082 24.48ZM157.082 21.792C158.405 21.792 159.567 21.44 160.57 20.736C161.573 20.032 162.341 19.008 162.874 17.664C163.407 16.2987 163.674 14.6773 163.674 12.8C163.674 10.9227 163.407 9.312 162.874 7.968C162.341 6.60267 161.573 5.568 160.57 4.864C159.567 4.16 158.405 3.808 157.082 3.808C155.738 3.808 154.565 4.16 153.562 4.864C152.559 5.568 151.791 6.60267 151.258 7.968C150.725 9.312 150.458 10.9227 150.458 12.8C150.458 14.6773 150.725 16.2987 151.258 17.664C151.791 19.008 152.559 20.032 153.562 20.736C154.565 21.44 155.738 21.792 157.082 21.792ZM170.515 21.472H173.683V4.128H170.515V1.6H181.843C184.595 1.6 186.75 2.19733 188.307 3.392C189.886 4.56533 190.675 6.19733 190.675 8.288C190.675 10.3787 189.886 12.0213 188.307 13.216C186.728 14.4107 184.574 15.008 181.843 15.008H178.451V21.472H182.707V24H170.515V21.472ZM181.555 12.832C182.878 12.832 183.902 12.448 184.627 11.68C185.374 10.912 185.747 9.83467 185.747 8.448C185.747 7.04 185.374 5.952 184.627 5.184C183.902 4.416 182.878 4.032 181.555 4.032H178.451V12.832H181.555Z"/>
</mask>
<path d="M0.64 21.472H3.808V4.128H0.64V1.6H12.48C15.0827 1.6 17.12 2.112 18.592 3.136C20.0853 4.13867 20.832 5.54667 20.832 7.36C20.832 8.61867 20.4267 9.70667 19.616 10.624C18.8267 11.52 17.696 12.1707 16.224 12.576V12.8C17.9733 13.1413 19.3173 13.7813 20.256 14.72C21.1947 15.6373 21.664 16.8107 21.664 18.24C21.664 20.032 20.928 21.44 19.456 22.464C18.0053 23.488 15.9893 24 13.408 24H0.64V21.472ZM12.704 21.536C13.9413 21.536 14.9013 21.2053 15.584 20.544C16.2667 19.8827 16.608 18.9547 16.608 17.76C16.608 16.544 16.256 15.6053 15.552 14.944C14.848 14.2613 13.8987 13.92 12.704 13.92H8.576V21.536H12.704ZM11.968 11.68C13.2267 11.68 14.1973 11.3493 14.88 10.688C15.584 10.0053 15.936 9.056 15.936 7.84C15.936 6.64533 15.584 5.71733 14.88 5.056C14.1973 4.39467 13.2267 4.064 11.968 4.064H8.576V11.68H11.968ZM21.0227 21.472H23.8068L30.2388 5.216L29.8868 4.128H26.9427V1.6H36.4468L43.6148 21.472H46.4308V24H34.7508V21.472H38.5268L36.7668 16.64H28.3828L26.4948 21.472H30.7508V24H21.0227V21.472ZM36.0308 14.464L32.8628 5.824H32.6068L29.1828 14.464H36.0308ZM45.6088 21.472H48.7768V4.128H45.6088V1.6H57.4488C60.0514 1.6 62.0888 2.112 63.5608 3.136C65.0541 4.13867 65.8008 5.54667 65.8008 7.36C65.8008 8.61867 65.3954 9.70667 64.5848 10.624C63.7954 11.52 62.6648 12.1707 61.1928 12.576V12.8C62.9421 13.1413 64.2861 13.7813 65.2248 14.72C66.1634 15.6373 66.6328 16.8107 66.6328 18.24C66.6328 20.032 65.8968 21.44 64.4248 22.464C62.9741 23.488 60.9581 24 58.3768 24H45.6088V21.472ZM57.6728 21.536C58.9101 21.536 59.8701 21.2053 60.5528 20.544C61.2354 19.8827 61.5768 18.9547 61.5768 17.76C61.5768 16.544 61.2248 15.6053 60.5208 14.944C59.8168 14.2613 58.8674 13.92 57.6728 13.92H53.5448V21.536H57.6728ZM56.9368 11.68C58.1954 11.68 59.1661 11.3493 59.8488 10.688C60.5528 10.0053 60.9048 9.056 60.9048 7.84C60.9048 6.64533 60.5528 5.71733 59.8488 5.056C59.1661 4.39467 58.1954 4.064 56.9368 4.064H53.5448V11.68H56.9368ZM71.413 21.472H75.573V15.424L68.309 4.128H65.557V1.6H77.461V4.128H73.653L79.189 13.184L84.693 4.128H80.917V1.6H90.485V4.128H87.701L80.469 15.456V21.472H84.629V24H71.413V21.472Z" fill="#6C63FF"/>
<path d="M0.64 21.472V20.472H-0.36V21.472H0.64ZM3.808 21.472V22.472H4.808V21.472H3.808ZM3.808 4.128H4.808V3.128H3.808V4.128ZM0.64 4.128H-0.36V5.128H0.64V4.128ZM0.64 1.6V0.599998H-0.36V1.6H0.64ZM18.592 3.136L18.0209 3.9569L18.0277 3.96162L18.0346 3.96622L18.592 3.136ZM19.616 10.624L18.8667 9.9618L18.8656 9.96297L19.616 10.624ZM16.224 12.576L15.9585 11.6119L15.224 11.8141V12.576H16.224ZM16.224 12.8H15.224V13.6237L16.0325 13.7815L16.224 12.8ZM20.256 14.72L19.5488 15.4272L19.5571 15.4352L20.256 14.72ZM19.456 22.464L18.8849 21.6431L18.8793 21.647L19.456 22.464ZM0.64 24H-0.36V25H0.64V24ZM15.584 20.544L14.8882 19.8258L14.8882 19.8258L15.584 20.544ZM15.552 14.944L14.8559 15.6619L14.8615 15.6674L14.8673 15.6728L15.552 14.944ZM8.576 13.92V12.92H7.576V13.92H8.576ZM8.576 21.536H7.576V22.536H8.576V21.536ZM14.88 10.688L15.5758 11.4062L15.5761 11.4059L14.88 10.688ZM14.88 5.056L14.1842 5.77424L14.1897 5.77959L14.1953 5.78485L14.88 5.056ZM8.576 4.064V3.064H7.576V4.064H8.576ZM8.576 11.68H7.576V12.68H8.576V11.68ZM0.64 22.472H3.808V20.472H0.64V22.472ZM4.808 21.472V4.128H2.808V21.472H4.808ZM3.808 3.128H0.64V5.128H3.808V3.128ZM1.64 4.128V1.6H-0.36V4.128H1.64ZM0.64 2.6H12.48V0.599998H0.64V2.6ZM12.48 2.6C14.9665 2.6 16.7766 3.09128 18.0209 3.9569L19.1631 2.31509C17.4634 1.13272 15.1989 0.599998 12.48 0.599998V2.6ZM18.0346 3.96622C19.2486 4.78134 19.832 5.87659 19.832 7.36H21.832C21.832 5.21674 20.9221 3.49599 19.1494 2.30578L18.0346 3.96622ZM19.832 7.36C19.832 8.38229 19.5109 9.23282 18.8667 9.9618L20.3653 11.2862C21.3424 10.1805 21.832 8.85504 21.832 7.36H19.832ZM18.8656 9.96297C18.2365 10.6772 17.2947 11.2439 15.9585 11.6119L16.4895 13.5401C18.0973 13.0974 19.4169 12.3628 20.3664 11.285L18.8656 9.96297ZM15.224 12.576V12.8H17.224V12.576H15.224ZM16.0325 13.7815C17.652 14.0975 18.7917 14.6699 19.5489 15.4271L20.9631 14.0129C19.8429 12.8927 18.2947 12.1852 16.4155 11.8185L16.0325 13.7815ZM19.5571 15.4352C20.285 16.1466 20.664 17.0534 20.664 18.24H22.664C22.664 16.568 22.1043 15.1281 20.9549 14.0048L19.5571 15.4352ZM20.664 18.24C20.664 19.7044 20.0884 20.8059 18.8849 21.6431L20.0271 23.2849C21.7676 22.0741 22.664 20.3596 22.664 18.24H20.664ZM18.8793 21.647C17.6581 22.509 15.8723 23 13.408 23V25C16.1063 25 18.3525 24.467 20.0327 23.281L18.8793 21.647ZM13.408 23H0.64V25H13.408V23ZM1.64 24V21.472H-0.36V24H1.64ZM12.704 22.536C14.1198 22.536 15.3594 22.1539 16.2798 21.2622L14.8882 19.8258C14.4433 20.2568 13.7629 20.536 12.704 20.536V22.536ZM16.2798 21.2622C17.2041 20.3668 17.608 19.1517 17.608 17.76H15.608C15.608 18.7576 15.3292 19.3986 14.8882 19.8258L16.2798 21.2622ZM17.608 17.76C17.608 16.344 17.1913 15.1119 16.2367 14.2152L14.8673 15.6728C15.3207 16.0987 15.608 16.744 15.608 17.76H17.608ZM16.2481 14.2261C15.3184 13.3246 14.0984 12.92 12.704 12.92V14.92C13.6989 14.92 14.3776 15.1981 14.8559 15.6619L16.2481 14.2261ZM12.704 12.92H8.576V14.92H12.704V12.92ZM7.576 13.92V21.536H9.576V13.92H7.576ZM8.576 22.536H12.704V20.536H8.576V22.536ZM11.968 12.68C13.3996 12.68 14.6524 12.3008 15.5758 11.4062L14.1842 9.96976C13.7423 10.3979 13.0537 10.68 11.968 10.68V12.68ZM15.5761 11.4059C16.5189 10.4917 16.936 9.25745 16.936 7.84H14.936C14.936 8.85455 14.6491 9.51899 14.1839 9.9701L15.5761 11.4059ZM16.936 7.84C16.936 6.43927 16.5158 5.2206 15.5647 4.32715L14.1953 5.78485C14.6522 6.21406 14.936 6.8514 14.936 7.84H16.936ZM15.5758 4.33776C14.6524 3.44319 13.3996 3.064 11.968 3.064V5.064C13.0537 5.064 13.7423 5.34614 14.1842 5.77424L15.5758 4.33776ZM11.968 3.064H8.576V5.064H11.968V3.064ZM7.576 4.064V11.68H9.576V4.064H7.576ZM8.576 12.68H11.968V10.68H8.576V12.68ZM21.0227 21.472V20.472H20.0227V21.472H21.0227ZM23.8068 21.472V22.472H24.4865L24.7366 21.8399L23.8068 21.472ZM30.2388 5.216L31.1686 5.58392L31.3008 5.24992L31.1902 4.90818L30.2388 5.216ZM29.8868 4.128L30.8382 3.82018L30.6143 3.128H29.8868V4.128ZM26.9427 4.128H25.9427V5.128H26.9427V4.128ZM26.9427 1.6V0.599998H25.9427V1.6H26.9427ZM36.4468 1.6L37.3874 1.26069L37.1491 0.599998H36.4468V1.6ZM43.6148 21.472L42.6741 21.8113L42.9124 22.472H43.6148V21.472ZM46.4308 21.472H47.4308V20.472H46.4308V21.472ZM46.4308 24V25H47.4308V24H46.4308ZM34.7508 24H33.7508V25H34.7508V24ZM34.7508 21.472V20.472H33.7508V21.472H34.7508ZM38.5268 21.472V22.472H39.9553L39.4664 21.1298L38.5268 21.472ZM36.7668 16.64L37.7064 16.2978L37.4668 15.64H36.7668V16.64ZM28.3828 16.64V15.64H27.6999L27.4513 16.2761L28.3828 16.64ZM26.4948 21.472L25.5633 21.1081L25.0304 22.472H26.4948V21.472ZM30.7508 21.472H31.7508V20.472H30.7508V21.472ZM30.7508 24V25H31.7508V24H30.7508ZM21.0227 24H20.0227V25H21.0227V24ZM36.0308 14.464V15.464H37.4625L36.9696 14.1197L36.0308 14.464ZM32.8628 5.824L33.8016 5.47974L33.5612 4.824H32.8628V5.824ZM32.6068 5.824V4.824H31.9274L31.6771 5.45558L32.6068 5.824ZM29.1828 14.464L28.2531 14.0956L27.7108 15.464H29.1828V14.464ZM21.0227 22.472H23.8068V20.472H21.0227V22.472ZM24.7366 21.8399L31.1686 5.58392L29.3089 4.84808L22.8769 21.1041L24.7366 21.8399ZM31.1902 4.90818L30.8382 3.82018L28.9353 4.43582L29.2873 5.52382L31.1902 4.90818ZM29.8868 3.128H26.9427V5.128H29.8868V3.128ZM27.9427 4.128V1.6H25.9427V4.128H27.9427ZM26.9427 2.6H36.4468V0.599998H26.9427V2.6ZM35.5061 1.93931L42.6741 21.8113L44.5554 21.1327L37.3874 1.26069L35.5061 1.93931ZM43.6148 22.472H46.4308V20.472H43.6148V22.472ZM45.4308 21.472V24H47.4308V21.472H45.4308ZM46.4308 23H34.7508V25H46.4308V23ZM35.7508 24V21.472H33.7508V24H35.7508ZM34.7508 22.472H38.5268V20.472H34.7508V22.472ZM39.4664 21.1298L37.7064 16.2978L35.8271 16.9822L37.5871 21.8142L39.4664 21.1298ZM36.7668 15.64H28.3828V17.64H36.7668V15.64ZM27.4513 16.2761L25.5633 21.1081L27.4262 21.8359L29.3142 17.0039L27.4513 16.2761ZM26.4948 22.472H30.7508V20.472H26.4948V22.472ZM29.7508 21.472V24H31.7508V21.472H29.7508ZM30.7508 23H21.0227V25H30.7508V23ZM22.0227 24V21.472H20.0227V24H22.0227ZM36.9696 14.1197L33.8016 5.47974L31.9239 6.16825L35.0919 14.8083L36.9696 14.1197ZM32.8628 4.824H32.6068V6.824H32.8628V4.824ZM31.6771 5.45558L28.2531 14.0956L30.1124 14.8324L33.5364 6.19242L31.6771 5.45558ZM29.1828 15.464H36.0308V13.464H29.1828V15.464ZM45.6088 21.472V20.472H44.6088V21.472H45.6088ZM48.7768 21.472V22.472H49.7768V21.472H48.7768ZM48.7768 4.128H49.7768V3.128H48.7768V4.128ZM45.6088 4.128H44.6088V5.128H45.6088V4.128ZM45.6088 1.6V0.599998H44.6088V1.6H45.6088ZM63.5608 3.136L62.9897 3.9569L62.9965 3.96162L63.0033 3.96622L63.5608 3.136ZM64.5848 10.624L63.8354 9.9618L63.8344 9.96297L64.5848 10.624ZM61.1928 12.576L60.9273 11.6119L60.1928 11.8141V12.576H61.1928ZM61.1928 12.8H60.1928V13.6237L61.0012 13.7815L61.1928 12.8ZM65.2248 14.72L64.5176 15.4272L64.5258 15.4352L65.2248 14.72ZM64.4248 22.464L63.8537 21.6431L63.8481 21.647L64.4248 22.464ZM45.6088 24H44.6088V25H45.6088V24ZM60.5528 20.544L59.857 19.8258L59.857 19.8258L60.5528 20.544ZM60.5208 14.944L59.8246 15.6619L59.8303 15.6674L59.8361 15.6728L60.5208 14.944ZM53.5448 13.92V12.92H52.5448V13.92H53.5448ZM53.5448 21.536H52.5448V22.536H53.5448V21.536ZM59.8488 10.688L60.5445 11.4062L60.5449 11.4059L59.8488 10.688ZM59.8488 5.056L59.153 5.77424L59.1585 5.77959L59.1641 5.78485L59.8488 5.056ZM53.5448 4.064V3.064H52.5448V4.064H53.5448ZM53.5448 11.68H52.5448V12.68H53.5448V11.68ZM45.6088 22.472H48.7768V20.472H45.6088V22.472ZM49.7768 21.472V4.128H47.7768V21.472H49.7768ZM48.7768 3.128H45.6088V5.128H48.7768V3.128ZM46.6088 4.128V1.6H44.6088V4.128H46.6088ZM45.6088 2.6H57.4488V0.599998H45.6088V2.6ZM57.4488 2.6C59.9352 2.6 61.7453 3.09128 62.9897 3.9569L64.1318 2.31509C62.4322 1.13272 60.1676 0.599998 57.4488 0.599998V2.6ZM63.0033 3.96622C64.2173 4.78134 64.8008 5.87659 64.8008 7.36H66.8008C66.8008 5.21674 65.8908 3.49599 64.1182 2.30578L63.0033 3.96622ZM64.8008 7.36C64.8008 8.38229 64.4796 9.23282 63.8354 9.9618L65.3341 11.2862C66.3112 10.1805 66.8008 8.85504 66.8008 7.36H64.8008ZM63.8344 9.96297C63.2052 10.6772 62.2635 11.2439 60.9273 11.6119L61.4582 13.5401C63.066 13.0974 64.3856 12.3628 65.3351 11.285L63.8344 9.96297ZM60.1928 12.576V12.8H62.1928V12.576H60.1928ZM61.0012 13.7815C62.6207 14.0975 63.7605 14.6699 64.5176 15.4271L65.9319 14.0129C64.8117 12.8927 63.2634 12.1852 61.3843 11.8185L61.0012 13.7815ZM64.5258 15.4352C65.2538 16.1466 65.6328 17.0534 65.6328 18.24H67.6328C67.6328 16.568 67.073 15.1281 65.9237 14.0048L64.5258 15.4352ZM65.6328 18.24C65.6328 19.7044 65.0572 20.8059 63.8537 21.6431L64.9958 23.2849C66.7363 22.0741 67.6328 20.3596 67.6328 18.24H65.6328ZM63.8481 21.647C62.6269 22.509 60.8411 23 58.3768 23V25C61.0751 25 63.3213 24.467 65.0014 23.281L63.8481 21.647ZM58.3768 23H45.6088V25H58.3768V23ZM46.6088 24V21.472H44.6088V24H46.6088ZM57.6728 22.536C59.0885 22.536 60.3281 22.1539 61.2485 21.2622L59.857 19.8258C59.412 20.2568 58.7316 20.536 57.6728 20.536V22.536ZM61.2485 21.2622C62.1729 20.3668 62.5768 19.1517 62.5768 17.76H60.5768C60.5768 18.7576 60.2979 19.3986 59.857 19.8258L61.2485 21.2622ZM62.5768 17.76C62.5768 16.344 62.1601 15.1119 61.2054 14.2152L59.8361 15.6728C60.2894 16.0987 60.5768 16.744 60.5768 17.76H62.5768ZM61.2169 14.2261C60.2872 13.3246 59.0672 12.92 57.6728 12.92V14.92C58.6677 14.92 59.3463 15.1981 59.8246 15.6619L61.2169 14.2261ZM57.6728 12.92H53.5448V14.92H57.6728V12.92ZM52.5448 13.92V21.536H54.5448V13.92H52.5448ZM53.5448 22.536H57.6728V20.536H53.5448V22.536ZM56.9368 12.68C58.3683 12.68 59.6211 12.3008 60.5445 11.4062L59.153 9.96976C58.711 10.3979 58.0225 10.68 56.9368 10.68V12.68ZM60.5449 11.4059C61.4877 10.4917 61.9048 9.25745 61.9048 7.84H59.9048C59.9048 8.85455 59.6178 9.51899 59.1526 9.9701L60.5449 11.4059ZM61.9048 7.84C61.9048 6.43927 61.4845 5.2206 60.5334 4.32715L59.1641 5.78485C59.621 6.21406 59.9048 6.8514 59.9048 7.84H61.9048ZM60.5445 4.33776C59.6211 3.44319 58.3683 3.064 56.9368 3.064V5.064C58.0225 5.064 58.711 5.34614 59.153 5.77424L60.5445 4.33776ZM56.9368 3.064H53.5448V5.064H56.9368V3.064ZM52.5448 4.064V11.68H54.5448V4.064H52.5448ZM53.5448 12.68H56.9368V10.68H53.5448V12.68ZM71.413 21.472V20.472H70.413V21.472H71.413ZM75.573 21.472V22.472H76.573V21.472H75.573ZM75.573 15.424H76.573V15.1302L76.4141 14.8831L75.573 15.424ZM68.309 4.128L69.1501 3.58712L68.8549 3.128H68.309V4.128ZM65.557 4.128H64.557V5.128H65.557V4.128ZM65.557 1.6V0.599998H64.557V1.6H65.557ZM77.461 1.6H78.461V0.599998H77.461V1.6ZM77.461 4.128V5.128H78.461V4.128H77.461ZM73.653 4.128V3.128H71.8696L72.7998 4.64957L73.653 4.128ZM79.189 13.184L78.3358 13.7056L79.1915 15.1053L80.0435 13.7034L79.189 13.184ZM84.693 4.128L85.5475 4.64737L86.471 3.128H84.693V4.128ZM80.917 4.128H79.917V5.128H80.917V4.128ZM80.917 1.6V0.599998H79.917V1.6H80.917ZM90.485 1.6H91.485V0.599998H90.485V1.6ZM90.485 4.128V5.128H91.485V4.128H90.485ZM87.701 4.128V3.128H87.153L86.8581 3.58989L87.701 4.128ZM80.469 15.456L79.6261 14.9179L79.469 15.164V15.456H80.469ZM80.469 21.472H79.469V22.472H80.469V21.472ZM84.629 21.472H85.629V20.472H84.629V21.472ZM84.629 24V25H85.629V24H84.629ZM71.413 24H70.413V25H71.413V24ZM71.413 22.472H75.573V20.472H71.413V22.472ZM76.573 21.472V15.424H74.573V21.472H76.573ZM76.4141 14.8831L69.1501 3.58712L67.4679 4.66888L74.7319 15.9649L76.4141 14.8831ZM68.309 3.128H65.557V5.128H68.309V3.128ZM66.557 4.128V1.6H64.557V4.128H66.557ZM65.557 2.6H77.461V0.599998H65.557V2.6ZM76.461 1.6V4.128H78.461V1.6H76.461ZM77.461 3.128H73.653V5.128H77.461V3.128ZM72.7998 4.64957L78.3358 13.7056L80.0422 12.6624L74.5062 3.60643L72.7998 4.64957ZM80.0435 13.7034L85.5475 4.64737L83.8385 3.60863L78.3345 12.6646L80.0435 13.7034ZM84.693 3.128H80.917V5.128H84.693V3.128ZM81.917 4.128V1.6H79.917V4.128H81.917ZM80.917 2.6H90.485V0.599998H80.917V2.6ZM89.485 1.6V4.128H91.485V1.6H89.485ZM90.485 3.128H87.701V5.128H90.485V3.128ZM86.8581 3.58989L79.6261 14.9179L81.3119 15.9941L88.5439 4.66611L86.8581 3.58989ZM79.469 15.456V21.472H81.469V15.456H79.469ZM80.469 22.472H84.629V20.472H80.469V22.472ZM83.629 21.472V24H85.629V21.472H83.629ZM84.629 23H71.413V25H84.629V23ZM72.413 24V21.472H70.413V24H72.413ZM98.1238 15.072V14.072H97.1238V15.072H98.1238ZM100.684 15.072L101.683 15.0363L101.649 14.072H100.684V15.072ZM100.716 15.968L99.7164 16.0037L99.7167 16.0105L100.716 15.968ZM102.124 18.88L101.4 19.5705L101.408 19.5787L102.124 18.88ZM111.724 21.664L111.376 20.7262L111.365 20.7307L111.724 21.664ZM113.068 20.768L112.303 20.1239L112.3 20.1278L113.068 20.768ZM112.876 17.856L112.186 18.5801L112.194 18.5881L112.203 18.5959L112.876 17.856ZM111.084 16.768L110.703 17.6927L110.712 17.6965L111.084 16.768ZM108.044 15.68L108.355 14.7298L108.298 14.7111L108.24 14.6994L108.044 15.68ZM107.692 15.584L107.32 16.5125L107.348 16.5234L107.376 16.5327L107.692 15.584ZM107.372 15.488L106.665 16.1951L106.879 16.4092L107.176 16.4686L107.372 15.488ZM107.244 15.424L107.951 14.7169L107.785 14.5514L107.564 14.4765L107.244 15.424ZM102.892 13.696L103.326 12.7952L103.326 12.7952L102.892 13.696ZM99.7878 11.296L99.0131 11.9284L99.0201 11.937L99.0274 11.9455L99.7878 11.296ZM99.4998 4.032L100.317 4.60795L100.317 4.60795L99.4998 4.032ZM102.252 1.888L102.638 2.81058L102.645 2.80761L102.652 2.80454L102.252 1.888ZM108.78 1.376L108.568 2.35343L108.574 2.35455L108.78 1.376ZM111.212 2.048L111.583 1.11952L111.56 1.11007L111.535 1.10183L111.212 2.048ZM112.428 2.592L112.875 1.69757L112.875 1.69757L112.428 2.592ZM113.484 3.232L112.892 4.0384L114.484 5.2054V3.232H113.484ZM113.484 0.383999V-0.616001H112.484V0.383999H113.484ZM116.012 0.383999H117.012V-0.616001H116.012V0.383999ZM116.012 9.824V10.824H117.012V9.824H116.012ZM113.516 9.824H112.516V10.824H113.516V9.824ZM113.516 9.024H114.516V8.99624L114.514 8.96853L113.516 9.024ZM112.172 6.656L111.474 7.37206L111.483 7.381L112.172 6.656ZM108.94 4.608L108.542 5.52556L108.551 5.52952L108.561 5.53331L108.94 4.608ZM102.7 4.48L103.3 5.28001L103.304 5.27669L102.7 4.48ZM102.508 7.968L101.801 8.67511L101.817 8.69117L101.833 8.70648L102.508 7.968ZM104.364 9.152L103.948 10.0615L103.959 10.0664L103.97 10.0711L104.364 9.152ZM107.468 10.272L107.161 11.2237L107.215 11.2413L107.272 11.2526L107.468 10.272ZM107.756 10.368L107.309 11.2624L107.428 11.3223L107.56 11.3486L107.756 10.368ZM108.108 10.432L108.479 9.50352L108.379 9.46338L108.272 9.4456L108.108 10.432ZM108.588 10.624L108.216 11.5525L108.247 11.5647L108.278 11.5749L108.588 10.624ZM112.94 12.32L112.499 13.2178L112.506 13.221L112.94 12.32ZM116.012 21.568L115.197 20.9885L115.192 20.9946L115.188 21.0007L116.012 21.568ZM113.228 23.744L112.848 22.819L113.228 23.744ZM105.964 24.192L106.16 23.2114L106.16 23.2114L105.964 24.192ZM103.18 23.424L102.801 24.3495L102.822 24.3581L102.843 24.3657L103.18 23.424ZM101.836 22.816L101.389 23.7104L101.389 23.7104L101.836 22.816ZM100.652 22.112L101.228 21.295L99.6518 20.1821V22.112H100.652ZM100.652 24.96V25.96H101.652V24.96H100.652ZM98.1238 24.96H97.1238V25.96H98.1238V24.96ZM98.1238 16.072H100.684V14.072H98.1238V16.072ZM99.6844 15.1077L99.7164 16.0037L101.715 15.9323L101.683 15.0363L99.6844 15.1077ZM99.7167 16.0105C99.7724 17.3194 100.387 18.509 101.4 19.5705L102.847 18.1895C102.068 17.3736 101.744 16.6219 101.715 15.9255L99.7167 16.0105ZM101.408 19.5787C102.413 20.6077 103.674 21.4245 105.164 22.0435L105.931 20.1965C104.648 19.6635 103.626 18.987 102.839 18.1813L101.408 19.5787ZM105.164 22.0435C106.666 22.6674 108.204 22.984 109.772 22.984V20.984C108.481 20.984 107.203 20.7246 105.931 20.1965L105.164 22.0435ZM109.772 22.984C110.611 22.984 111.388 22.8644 112.083 22.5973L111.365 20.7307C110.95 20.8902 110.426 20.984 109.772 20.984V22.984ZM112.071 22.6017C112.774 22.3415 113.381 21.954 113.836 21.4082L112.3 20.1278C112.114 20.35 111.826 20.5598 111.376 20.7263L112.071 22.6017ZM113.833 21.4121C114.327 20.8252 114.58 20.1274 114.58 19.36H112.58C112.58 19.6593 112.491 19.9001 112.303 20.1239L113.833 21.4121ZM114.58 19.36C114.58 18.4719 114.203 17.7109 113.548 17.1161L112.203 18.5959C112.487 18.8545 112.58 19.096 112.58 19.36H114.58ZM113.565 17.1319C113.002 16.5955 112.286 16.172 111.455 15.8395L110.712 17.6965C111.375 17.9614 111.853 18.2632 112.186 18.5801L113.565 17.1319ZM111.465 15.8433C110.706 15.5309 109.666 15.1594 108.355 14.7298L107.732 16.6302C109.025 17.054 110.011 17.4078 110.703 17.6927L111.465 15.8433ZM108.24 14.6994C108.182 14.6879 108.106 14.6678 108.008 14.6353L107.376 16.5327C107.534 16.5855 107.692 16.6295 107.848 16.6606L108.24 14.6994ZM108.063 14.6555C107.903 14.5914 107.738 14.5414 107.568 14.5074L107.176 16.4686C107.219 16.4773 107.267 16.4912 107.32 16.5125L108.063 14.6555ZM108.079 14.7809C107.949 14.6506 107.688 14.456 107.308 14.456V16.456C106.97 16.456 106.752 16.2828 106.665 16.1951L108.079 14.7809ZM107.308 14.456C107.645 14.456 107.863 14.6292 107.951 14.7169L106.537 16.1311C106.667 16.2614 106.928 16.456 107.308 16.456V14.456ZM107.564 14.4765C105.883 13.9094 104.473 13.3483 103.326 12.7952L102.457 14.5968C103.7 15.1957 105.191 15.7866 106.924 16.3715L107.564 14.4765ZM103.326 12.7952C102.258 12.2804 101.334 11.5667 100.548 10.6465L99.0274 11.9455C99.9907 13.0733 101.136 13.9596 102.457 14.5968L103.326 12.7952ZM100.562 10.6636C99.8768 9.82376 99.5078 8.75623 99.5078 7.392H97.5078C97.5078 9.14244 97.992 10.6776 99.0131 11.9284L100.562 10.6636ZM99.5078 7.392C99.5078 6.26831 99.7901 5.35611 100.317 4.60795L98.6823 3.45605C97.8867 4.58522 97.5078 5.91302 97.5078 7.392H99.5078ZM100.317 4.60795C100.859 3.8394 101.619 3.2367 102.638 2.81058L101.866 0.965419C100.538 1.52063 99.4635 2.34726 98.6823 3.45605L100.317 4.60795ZM102.652 2.80454C103.678 2.35672 104.882 2.12 106.284 2.12V0.119999C104.656 0.119999 103.172 0.395276 101.852 0.971459L102.652 2.80454ZM106.284 2.12C107.093 2.12 107.854 2.19894 108.568 2.35341L108.991 0.398585C108.127 0.21172 107.224 0.119999 106.284 0.119999V2.12ZM108.574 2.35455C109.343 2.51655 110.115 2.72956 110.888 2.99416L111.535 1.10183C110.688 0.811768 109.838 0.576785 108.986 0.397449L108.574 2.35455ZM110.84 2.97647C111.243 3.13756 111.623 3.30765 111.981 3.48643L112.875 1.69757C112.465 1.49235 112.034 1.29977 111.583 1.11952L110.84 2.97647ZM111.981 3.48643C112.318 3.65524 112.621 3.83968 112.892 4.0384L114.075 2.42559C113.706 2.15499 113.305 1.91276 112.875 1.69757L111.981 3.48643ZM114.484 3.232V0.383999H112.484V3.232H114.484ZM113.484 1.384H116.012V-0.616001H113.484V1.384ZM115.012 0.383999V9.824H117.012V0.383999H115.012ZM116.012 8.824H113.516V10.824H116.012V8.824ZM114.516 9.824V9.024H112.516V9.824H114.516ZM114.514 8.96853C114.452 7.83976 113.803 6.82678 112.861 5.931L111.483 7.381C112.247 8.10655 112.495 8.67224 112.517 9.07947L114.514 8.96853ZM112.87 5.94C111.91 5.00383 110.718 4.25609 109.319 3.68269L108.561 5.53331C109.764 6.02658 110.727 6.64416 111.474 7.372L112.87 5.94ZM109.337 3.69044C107.948 3.08832 106.554 2.776 105.164 2.776V4.776C106.248 4.776 107.372 5.01835 108.542 5.52556L109.337 3.69044ZM105.164 2.776C103.991 2.776 102.936 3.0455 102.095 3.68331L103.304 5.27669C103.701 4.97583 104.289 4.776 105.164 4.776V2.776ZM102.1 3.68C101.242 4.32311 100.804 5.23181 100.804 6.304H102.804C102.804 5.84018 102.963 5.53289 103.3 5.28L102.1 3.68ZM100.804 6.304C100.804 7.22 101.152 8.026 101.801 8.67511L103.215 7.26089C102.925 6.97133 102.804 6.668 102.804 6.304H100.804ZM101.833 8.70648C102.417 9.23882 103.128 9.68669 103.948 10.0615L104.78 8.24252C104.106 7.93464 103.58 7.59318 103.182 7.22951L101.833 8.70648ZM103.97 10.0711C104.758 10.4089 105.826 10.7932 107.161 11.2237L107.775 9.32029C106.464 8.89748 105.463 8.5351 104.758 8.23285L103.97 10.0711ZM107.272 11.2526C107.303 11.2589 107.313 11.2646 107.309 11.2624L108.203 9.47357C108.028 9.38605 107.846 9.32779 107.664 9.29142L107.272 11.2526ZM107.56 11.3486C107.679 11.3724 107.807 11.3956 107.943 11.4184L108.272 9.4456C108.153 9.42571 108.046 9.40629 107.952 9.38742L107.56 11.3486ZM107.736 11.3605L108.216 11.5525L108.959 9.69552L108.479 9.50352L107.736 11.3605ZM108.278 11.5749C110.023 12.1426 111.426 12.6912 112.499 13.2178L113.38 11.4222C112.192 10.8395 110.694 10.2574 108.897 9.67305L108.278 11.5749ZM112.506 13.221C113.536 13.717 114.392 14.3778 115.086 15.2036L116.617 13.9164C115.733 12.8648 114.648 12.0324 113.374 11.419L112.506 13.221ZM115.086 15.2036C115.704 15.9385 116.036 16.8641 116.036 18.048H118.036C118.036 16.4586 117.578 15.0588 116.617 13.9164L115.086 15.2036ZM116.036 18.048C116.036 19.2648 115.739 20.2262 115.197 20.9885L116.827 22.1475C117.65 20.9898 118.036 19.6045 118.036 18.048H116.036ZM115.188 21.0007C114.649 21.784 113.883 22.3938 112.848 22.819L113.608 24.669C114.962 24.1129 116.052 23.272 116.835 22.1353L115.188 21.0007ZM112.848 22.819C111.797 23.2505 110.544 23.48 109.068 23.48V25.48C110.749 25.48 112.269 25.2189 113.608 24.669L112.848 22.819ZM109.068 23.48C108.016 23.48 107.047 23.3889 106.16 23.2114L105.768 25.1726C106.8 25.3791 107.901 25.48 109.068 25.48V23.48ZM106.16 23.2114C105.246 23.0287 104.365 22.7855 103.516 22.4823L102.843 24.3657C103.786 24.7025 104.761 24.9713 105.768 25.1726L106.16 23.2114ZM103.558 22.4985C103.111 22.3154 102.686 22.123 102.283 21.9216L101.389 23.7104C101.839 23.9357 102.31 24.1486 102.801 24.3495L103.558 22.4985ZM102.283 21.9216C101.898 21.7291 101.547 21.5199 101.228 21.295L100.075 22.929C100.482 23.2161 100.92 23.4762 101.389 23.7104L102.283 21.9216ZM99.6518 22.112V24.96H101.652V22.112H99.6518ZM100.652 23.96H98.1238V25.96H100.652V23.96ZM99.1238 24.96V15.072H97.1238V24.96H99.1238ZM118.64 21.472V20.472H117.64V21.472H118.64ZM121.808 21.472V22.472H122.808V21.472H121.808ZM121.808 4.128H122.808V3.128H121.808V4.128ZM118.64 4.128H117.64V5.128H118.64V4.128ZM118.64 1.6V0.599998H117.64V1.6H118.64ZM129.872 1.6H130.872V0.599998H129.872V1.6ZM129.872 4.128V5.128H130.872V4.128H129.872ZM126.576 4.128V3.128H125.576V4.128H126.576ZM126.576 11.616H125.576V12.616H126.576V11.616ZM135.664 11.616V12.616H136.664V11.616H135.664ZM135.664 4.128H136.664V3.128H135.664V4.128ZM132.368 4.128H131.368V5.128H132.368V4.128ZM132.368 1.6V0.599998H131.368V1.6H132.368ZM143.6 1.6H144.6V0.599998H143.6V1.6ZM143.6 4.128V5.128H144.6V4.128H143.6ZM140.432 4.128V3.128H139.432V4.128H140.432ZM140.432 21.472H139.432V22.472H140.432V21.472ZM143.6 21.472H144.6V20.472H143.6V21.472ZM143.6 24V25H144.6V24H143.6ZM132.368 24H131.368V25H132.368V24ZM132.368 21.472V20.472H131.368V21.472H132.368ZM135.664 21.472V22.472H136.664V21.472H135.664ZM135.664 13.984H136.664V12.984H135.664V13.984ZM126.576 13.984V12.984H125.576V13.984H126.576ZM126.576 21.472H125.576V22.472H126.576V21.472ZM129.872 21.472H130.872V20.472H129.872V21.472ZM129.872 24V25H130.872V24H129.872ZM118.64 24H117.64V25H118.64V24ZM118.64 22.472H121.808V20.472H118.64V22.472ZM122.808 21.472V4.128H120.808V21.472H122.808ZM121.808 3.128H118.64V5.128H121.808V3.128ZM119.64 4.128V1.6H117.64V4.128H119.64ZM118.64 2.6H129.872V0.599998H118.64V2.6ZM128.872 1.6V4.128H130.872V1.6H128.872ZM129.872 3.128H126.576V5.128H129.872V3.128ZM125.576 4.128V11.616H127.576V4.128H125.576ZM126.576 12.616H135.664V10.616H126.576V12.616ZM136.664 11.616V4.128H134.664V11.616H136.664ZM135.664 3.128H132.368V5.128H135.664V3.128ZM133.368 4.128V1.6H131.368V4.128H133.368ZM132.368 2.6H143.6V0.599998H132.368V2.6ZM142.6 1.6V4.128H144.6V1.6H142.6ZM143.6 3.128H140.432V5.128H143.6V3.128ZM139.432 4.128V21.472H141.432V4.128H139.432ZM140.432 22.472H143.6V20.472H140.432V22.472ZM142.6 21.472V24H144.6V21.472H142.6ZM143.6 23H132.368V25H143.6V23ZM133.368 24V21.472H131.368V24H133.368ZM132.368 22.472H135.664V20.472H132.368V22.472ZM136.664 21.472V13.984H134.664V21.472H136.664ZM135.664 12.984H126.576V14.984H135.664V12.984ZM125.576 13.984V21.472H127.576V13.984H125.576ZM126.576 22.472H129.872V20.472H126.576V22.472ZM128.872 21.472V24H130.872V21.472H128.872ZM129.872 23H118.64V25H129.872V23ZM119.64 24V21.472H117.64V24H119.64ZM151.034 22.976L150.541 23.8462L150.546 23.8487L151.034 22.976ZM146.874 18.816L146.004 19.3087L146.004 19.3087L146.874 18.816ZM146.874 6.784L146.004 6.29125L146.004 6.29125L146.874 6.784ZM151.034 2.624L150.546 1.7513L150.541 1.75383L151.034 2.624ZM163.066 2.624L162.573 3.49418L162.578 3.49668L163.066 2.624ZM167.258 6.784L168.128 6.29125L168.128 6.29125L167.258 6.784ZM167.258 18.816L168.128 19.3087L168.128 19.3087L167.258 18.816ZM163.066 22.976L162.578 22.1033L162.573 22.1058L163.066 22.976ZM160.57 20.736L161.145 21.5544L161.145 21.5544L160.57 20.736ZM162.874 17.664L163.804 18.0329L163.805 18.0279L162.874 17.664ZM162.874 7.968L161.943 8.33185L161.945 8.33684L162.874 7.968ZM160.57 4.864L161.145 4.04559L161.145 4.04559L160.57 4.864ZM153.562 4.864L152.987 4.04559L152.987 4.04559L153.562 4.864ZM151.258 7.968L152.188 8.33685L152.189 8.33185L151.258 7.968ZM151.258 17.664L150.327 18.0279L150.329 18.0328L151.258 17.664ZM153.562 20.736L152.987 21.5544L152.987 21.5544L153.562 20.736ZM157.082 23.48C154.997 23.48 153.152 23.015 151.522 22.1033L150.546 23.8487C152.5 24.9423 154.687 25.48 157.082 25.48V23.48ZM151.527 22.1058C149.914 21.1924 148.658 19.9362 147.744 18.3233L146.004 19.3087C147.096 21.2371 148.613 22.7542 150.541 23.8462L151.527 22.1058ZM147.744 18.3233C146.835 16.7177 146.37 14.8851 146.37 12.8H144.37C144.37 15.1949 144.908 17.373 146.004 19.3087L147.744 18.3233ZM146.37 12.8C146.37 10.7149 146.835 8.88233 147.744 7.27675L146.004 6.29125C144.908 8.22701 144.37 10.4051 144.37 12.8H146.37ZM147.744 7.27675C148.658 5.66376 149.914 4.40755 151.527 3.49417L150.541 1.75383C148.613 2.84578 147.096 4.3629 146.004 6.29125L147.744 7.27675ZM151.522 3.49668C153.152 2.58495 154.997 2.12 157.082 2.12V0.119999C154.687 0.119999 152.5 0.65771 150.546 1.75132L151.522 3.49668ZM157.082 2.12C159.144 2.12 160.966 2.58417 162.573 3.49417L163.559 1.75383C161.624 0.658492 159.457 0.119999 157.082 0.119999V2.12ZM162.578 3.49668C164.212 4.41088 165.476 5.6668 166.388 7.27675L168.128 6.29125C167.034 4.35986 165.504 2.84245 163.554 1.75132L162.578 3.49668ZM166.388 7.27675C167.297 8.88233 167.762 10.7149 167.762 12.8H169.762C169.762 10.4051 169.224 8.22701 168.128 6.29125L166.388 7.27675ZM167.762 12.8C167.762 14.8851 167.297 16.7177 166.388 18.3233L168.128 19.3087C169.224 17.373 169.762 15.1949 169.762 12.8H167.762ZM166.388 18.3233C165.476 19.9332 164.212 21.1891 162.578 22.1033L163.554 23.8487C165.504 22.7575 167.034 21.2401 168.128 19.3087L166.388 18.3233ZM162.573 22.1058C160.966 23.0158 159.144 23.48 157.082 23.48V25.48C159.457 25.48 161.624 24.9415 163.559 23.8462L162.573 22.1058ZM157.082 22.792C158.593 22.792 159.96 22.3861 161.145 21.5544L159.995 19.9176C159.175 20.4939 158.216 20.792 157.082 20.792V22.792ZM161.145 21.5544C162.334 20.7194 163.211 19.5248 163.803 18.0328L161.945 17.2952C161.47 18.4912 160.811 19.3446 159.995 19.9176L161.145 21.5544ZM163.805 18.0279C164.395 16.5191 164.674 14.7684 164.674 12.8H162.674C162.674 14.5862 162.42 16.0783 161.943 17.3001L163.805 18.0279ZM164.674 12.8C164.674 10.8322 164.395 9.08981 163.803 7.59915L161.945 8.33684C162.42 9.53418 162.674 11.0131 162.674 12.8H164.674ZM163.805 7.60415C163.215 6.09205 162.338 4.88332 161.145 4.04559L159.995 5.68241C160.808 6.25268 161.467 7.11328 161.943 8.33185L163.805 7.60415ZM161.145 4.04559C159.96 3.21387 158.593 2.808 157.082 2.808V4.808C158.216 4.808 159.175 5.10612 159.995 5.68241L161.145 4.04559ZM157.082 2.808C155.553 2.808 154.175 3.21193 152.987 4.04559L154.137 5.68241C154.955 5.10806 155.923 4.808 157.082 4.808V2.808ZM152.987 4.04559C151.794 4.88332 150.917 6.09205 150.327 7.60415L152.189 8.33185C152.665 7.11328 153.324 6.25268 154.137 5.68241L152.987 4.04559ZM150.329 7.59915C149.737 9.08981 149.458 10.8322 149.458 12.8H151.458C151.458 11.0131 151.712 9.53418 152.187 8.33684L150.329 7.59915ZM149.458 12.8C149.458 14.7684 149.737 16.5191 150.327 18.0279L152.189 17.3001C151.712 16.0783 151.458 14.5862 151.458 12.8H149.458ZM150.329 18.0328C150.921 19.5248 151.798 20.7194 152.987 21.5544L154.137 19.9176C153.321 19.3446 152.662 18.4912 152.187 17.2952L150.329 18.0328ZM152.987 21.5544C154.175 22.3881 155.553 22.792 157.082 22.792V20.792C155.923 20.792 154.955 20.4919 154.137 19.9176L152.987 21.5544ZM170.515 21.472V20.472H169.515V21.472H170.515ZM173.683 21.472V22.472H174.683V21.472H173.683ZM173.683 4.128H174.683V3.128H173.683V4.128ZM170.515 4.128H169.515V5.128H170.515V4.128ZM170.515 1.6V0.599998H169.515V1.6H170.515ZM188.307 3.392L187.698 4.18543L187.704 4.19006L187.71 4.19459L188.307 3.392ZM178.451 15.008V14.008H177.451V15.008H178.451ZM178.451 21.472H177.451V22.472H178.451V21.472ZM182.707 21.472H183.707V20.472H182.707V21.472ZM182.707 24V25H183.707V24H182.707ZM170.515 24H169.515V25H170.515V24ZM184.627 11.68L183.91 10.9829L183.905 10.9881L183.9 10.9934L184.627 11.68ZM184.627 5.184L183.9 5.87062L183.905 5.87589L183.91 5.88108L184.627 5.184ZM178.451 4.032V3.032H177.451V4.032H178.451ZM178.451 12.832H177.451V13.832H178.451V12.832ZM170.515 22.472H173.683V20.472H170.515V22.472ZM174.683 21.472V4.128H172.683V21.472H174.683ZM173.683 3.128H170.515V5.128H173.683V3.128ZM171.515 4.128V1.6H169.515V4.128H171.515ZM170.515 2.6H181.843V0.599998H170.515V2.6ZM181.843 2.6C184.461 2.6 186.374 3.16927 187.698 4.18543L188.916 2.59857C187.126 1.2254 184.729 0.599998 181.843 0.599998V2.6ZM187.71 4.19459C189.017 5.16582 189.675 6.4904 189.675 8.288H191.675C191.675 5.90427 190.754 3.96484 188.904 2.5894L187.71 4.19459ZM189.675 8.288C189.675 10.0859 189.017 11.425 187.704 12.4186L188.91 14.0134C190.755 12.6177 191.675 10.6715 191.675 8.288H189.675ZM187.704 12.4186C186.354 13.4401 184.437 14.008 181.843 14.008V16.008C184.71 16.008 187.103 15.3813 188.91 14.0134L187.704 12.4186ZM181.843 14.008H178.451V16.008H181.843V14.008ZM177.451 15.008V21.472H179.451V15.008H177.451ZM178.451 22.472H182.707V20.472H178.451V22.472ZM181.707 21.472V24H183.707V21.472H181.707ZM182.707 23H170.515V25H182.707V23ZM171.515 24V21.472H169.515V24H171.515ZM181.555 13.832C183.079 13.832 184.394 13.3827 185.354 12.3666L183.9 10.9934C183.409 11.5133 182.676 11.832 181.555 11.832V13.832ZM185.344 12.3771C186.321 11.3722 186.747 10.0153 186.747 8.448H184.747C184.747 9.65403 184.426 10.4518 183.91 10.9829L185.344 12.3771ZM186.747 8.448C186.747 6.8643 186.324 5.49456 185.344 4.48692L183.91 5.88108C184.424 6.40944 184.747 7.21569 184.747 8.448H186.747ZM185.354 4.49738C184.394 3.48133 183.079 3.032 181.555 3.032V5.032C182.676 5.032 183.409 5.35067 183.9 5.87062L185.354 4.49738ZM181.555 3.032H178.451V5.032H181.555V3.032ZM177.451 4.032V12.832H179.451V4.032H177.451ZM178.451 13.832H181.555V11.832H178.451V13.832Z" fill="#6C63FF" mask="url(#path-1-outside-1_0_1)"/>
</g>
</svg>
